<svg id="logo" xmlns="http://www.w3.org/2000/svg" width="600" height="400" viewBox="0 0 600 400">
  <defs>
    <linearGradient id="noevents-a" x1="50%" x2="50%" y1="0%" y2="78.216%">
      <stop offset="0%" stop-color="#FFF"/>
      <stop offset="100%" stop-color="#C2E8FF"/>
    </linearGradient>
  </defs>
  <g fill="none" fill-rule="evenodd">
    <rect width="600" height="400" fill="none"/>
    <g fill="#C2E8FF" transform="translate(226.293 271.055)">
      <path d="M247.428708,41.9454545 L82.0995433,41.9454545 C82.0336615,41.2089487 82,40.4630069 82,39.7090909 C82,26.2132599 92.7866531,15.2727273 106.092664,15.2727273 C109.749202,15.2727273 113.215485,16.0989227 116.31995,17.5772977 C121.571203,7.14424616 132.271428,0 144.617597,0 C158.063626,0 169.557389,8.47383452 174.186248,20.441159 C175.900275,19.5768947 177.832406,19.0909091 179.876448,19.0909091 C182.211783,19.0909091 184.401037,19.7252784 186.285841,20.8333889 C190.997403,14.2263569 198.663488,9.92727273 207.320028,9.92727273 C220.043441,9.92727273 230.627152,19.2146805 232.834755,31.4671412 C233.487388,31.3631046 234.156394,31.3090909 234.837838,31.3090909 C241.117096,31.3090909 246.340238,35.8953699 247.428708,41.9454545 L247.428708,41.9454545 Z"/>
      <path d="M130.668702,41.9099031 C127.932299,35.4597639 121.65134,30.9483651 114.340456,30.9483651 C112.326227,30.9483651 110.390176,31.2908087 108.584891,31.9218937 C105.158045,26.6158811 99.2739697,23.115309 92.5903529,23.115309 C86.1978312,23.115309 80.5367222,26.3175969 77.0574148,31.2390213 C75.6655593,30.4136156 74.0488794,29.9410886 72.3243243,29.9410886 C70.814878,29.9410886 69.388074,30.303088 68.1223309,30.9468584 C64.7040965,22.0326767 56.2163941,15.7207144 46.2870194,15.7207144 C37.1698473,15.7207144 29.2681419,21.0422982 25.3902942,28.8136368 C23.0977671,27.7124276 20.5380502,27.0970138 17.8378378,27.0970138 C9.14391415,27.0970138 1.90644813,33.4767543 0.354185118,41.9099036 L130.668705,41.9099036 L130.668702,41.9099031 Z"/>
    </g>
    <g transform="translate(104 228)">
      <g transform="translate(35)">
        <circle cx="36" cy="77" r="7" fill="#C2E8FF"/>
        <circle cx="53" cy="77" r="7" fill="#C2E8FF"/>
        <circle cx="70" cy="77" r="7" fill="#C2E8FF"/>
        <path stroke="url(#noevents-a)" stroke-linecap="round" stroke-width="3" d="M47.5993204,62 C47.5993204,62 45.3234189,54.9545453 55.0548818,54.9545455 C64.7863447,54.9545456 60.64481,54.9545466 68.525098,54.9545455 C76.4053859,54.9545443 75.8197996,45.1551939 68.7795875,45.0909091 L27.7910035,45.0909091 C27.7910035,45.0909091 10.4867295,45.1551939 6.38851862,45.0909091 C-2.1315161,45.1551939 -2.12749607,32.4090909 6.38851862,32.4090909 L91.0476222,32.4090909 C104.446387,32.4090909 104.102146,16.8434669 91.306569,16.9090909 C78.5109918,16.8434669 49.4432546,16.9090909 36.9059317,16.9090909 C33.2180637,16.9090909 26.6356862,16.5042063 26.6356862,8.45454545 C26.6356862,3.50059894 26.4270933,2.2662402 26.4270933,0" transform="matrix(-1 0 0 1 101 0)"/>
      </g>
      <g stroke="#8CD3F8" stroke-width="3" transform="translate(0 70)">
        <path stroke-linecap="round" d="M22 16.5L392 16.5M0 16.5L12 16.5"/>
        <circle cx="71" cy="7" r="7"/>
        <circle cx="88" cy="7" r="7"/>
        <circle cx="105" cy="7" r="7"/>
      </g>
    </g>
    <g transform="translate(259 246)">
      <polygon fill="#C2E8FF" points="35.831 .382 101.724 .382 137.062 68.318 .556 68.318" transform="translate(1)"/>
      <rect width="66" height="4" fill="#FFF" transform="translate(38 1)"/>
      <g stroke="#8CD3F8" stroke-width="3">
        <path stroke-linecap="round" stroke-linejoin="round" d="M36.5,0.5 L102.390018,0.5 L102.390018,0.5 C102.764581,0.5 103.107738,0.709319657 103.279154,1.04235657 L137.249742,67.0423566 L137.249742,67.0423566 C137.502492,67.5334127 137.309306,68.1363863 136.81825,68.3891358 C136.676702,68.4619916 136.519804,68.5 136.360607,68.5 L73.2120254,68.5 L73.2120254,68.5 C72.4670674,68.5 71.7838465,68.0859594 71.4390883,67.4255775 L36.5,0.5 Z"/>
        <path d="M36.5,3 L36.5,68"/>
        <path stroke-linecap="round" stroke-linejoin="round" d="M36.5.5L2.5 68M73.5 55L73.5 67M1.5 55L1.5 67"/>
      </g>
    </g>
    <g transform="translate(420.5 252.5)">
      <path fill="#C2E8FF" d="M18.9209988,1.95433401 L33.259296,51.443436 L33.259296,51.443436 C33.5666778,52.5043744 32.9557995,53.613617 31.8948612,53.9209988 C31.7139843,53.9734036 31.5266126,54 31.3382972,54 L2.6617028,54 L2.6617028,54 C1.5571333,54 0.661702805,53.1045695 0.661702805,52 C0.661702805,51.8116846 0.688299176,51.6243129 0.74070397,51.443436 L15.0790012,1.95433401 L15.0790012,1.95433401 C15.386383,0.893395645 16.4956256,0.282517358 17.556564,0.589899164 C18.2152102,0.780726338 18.7301717,1.29568777 18.9209988,1.95433401 Z"/>
      <g stroke="#8CD3F8" stroke-linecap="round" stroke-width="3">
        <polygon stroke-linejoin="round" points="17 .324 34 54 0 54"/>
        <path d="M17,3.6953125 C17,42.0456294 17,61.6471919 17,62.5 C17,61.6471919 17,42.0456294 17,3.6953125 Z"/>
        <path stroke-linejoin="round" d="M17,29.3239437 C22.3333333,35.7851611 25,39.1184944 25,39.3239437 C25,39.1184944 22.3333333,35.7851611 17,29.3239437 Z" transform="matrix(-1 0 0 1 42 0)"/>
      </g>
    </g>
    <g transform="translate(377 219.5)">
      <path fill="#C2E8FF" d="M25.6478873,0 L50.879042,84.4273253 L50.879042,84.4273253 C51.1953215,85.4856452 50.5937789,86.5999782 49.535459,86.9162577 C49.3496374,86.9717906 49.1567264,87 48.9627843,87 L2.33299037,87 L2.33299037,87 C1.22842087,87 0.332990367,86.1045695 0.332990367,85 C0.332990367,84.8060578 0.361199757,84.6131469 0.416732643,84.4273253 L25.6478873,0 Z" transform="translate(1)"/>
      <g stroke="#8CD3F8" stroke-linecap="round" stroke-width="3">
        <polygon stroke-linejoin="round" points="26.5 0 52.5 87 .5 87"/>
        <path d="M26.5,2.58642578 C26.5,63.0261034 26.5,93.9972948 26.5,95.5 C26.5,93.9972948 26.5,63.0261034 26.5,2.58642578 Z"/>
        <path stroke-linejoin="round" d="M15.6478873 42C22.9812207 49.078692 26.6478873 52.7453587 26.6478873 53 26.6478873 52.7453587 22.9812207 49.078692 15.6478873 42zM27.6478873 68C36.9812207 57.078692 41.6478873 51.7453587 41.6478873 52 41.6478873 51.7453587 36.9812207 57.078692 27.6478873 68z"/>
      </g>
    </g>
    <g stroke="#C2E8FF" stroke-linecap="round" stroke-width="3" transform="translate(149 73)">
      <path d="M244.3 110.0625L242.56612 116.874639M202.3 110.0625L201.259672 114.149783M223.3 110.0625L219.83224 123.686778M181.3 110.0625L177.83224 123.686778M198.8 124.125L195.33224 137.749278M192.5 148.734375L190.072568 158.271369M35 96L33.9596721 100.087283M31.5 110.0625L28.0322405 123.686778M23.8 137.484375L21.3725683 147.021369M217 134.671875L210.758033 159.195575M175 134.671875L168.758033 159.195575M160.3 110.0625L156.83224 123.686778M154 134.671875L147.758033 159.195575M56.7 97.40625L53.2322405 111.030528M50.4 122.015625L44.1580329 146.539325M99.4 98.8125L95.9322405 112.436778M93.1 123.421875L86.8580329 147.945575M119.7 107.953125L115.538689 124.302258M112 134.671875L107.838689 151.021008M105 162.796875L102.052404 174.377511M139.138798 109.359375L124.054044 168.624983M121.43388 178.96875L119.7 185.780889M238.7 133.265625L235.579016 145.527475M78.4 98.109375L76.6661202 104.921514M72.8 121.3125L69.6790164 133.57435M232.4 156.46875L227.545137 175.542739"/>
      <path fill="#FFF" stroke-linejoin="round" d="M223.9846,42.8744258 C223.333206,19.0940705 202.099144,0 176,0 C155.637986,0 138.237249,11.6221763 131.261749,28.0245672 C126.276171,24.2574126 119.921237,22 113,22 C99.2543392,22 87.7423132,30.9037878 84.7544971,42.8546211 C82.3570097,41.0685028 79.3128845,40 76,40 C71.6933512,40 67.8408843,41.805685 65.2727401,44.6462098 C62.0427942,37.2047378 54.6292129,32 46,32 C35.4245934,32 26.6749893,39.8171894 25.2143247,49.9884312 C22.7794647,48.7212831 19.9792292,48 17,48 C7.61115925,48 0,55.163444 0,64 C0,72.520608 7.07662053,79.4856081 16,79.9727778 L16,80 L109.545955,80 C111.923454,87.2359145 117.923092,92 133,92 C134.75776,92 136.422816,91.9585455 138,91.8774972 L138,92 L268,92 L268,91.9831709 C282.448403,91.4960824 294,80.4971246 294,67 C294,53.1928813 281.911688,42 267,42 C258.903096,42 251.638633,45.3000931 246.689876,50.5268855 C243.11009,45.3887214 236.971612,42 230,42 C227.903922,42 225.883157,42.3063262 223.9846,42.8744258 Z"/>
      <path stroke-linejoin="round" d="M109.294922,80.9003906 C107.419271,74.0511622 108.13444,68.4010971 111.44043,63.9501953 C112.77438,62.1542792 116.767578,59.2880859 120.388672,59.3876953"/>
    </g>
  </g>
</svg>
