<?xml version="1.0" encoding="UTF-8"?>
<svg width="1280px" height="200px" viewBox="0 0 1280 200" version="1.1" xmlns="http://www.w3.org/2000/svg" xmlns:xlink="http://www.w3.org/1999/xlink">
    <title>default hero banner background@1x</title>
    <defs>
        <linearGradient x1="50%" y1="-5.85416667%" x2="50%" y2="86.5447195%" id="linearGradient-1">
            <stop stop-color="#BEC9DE" offset="0%"></stop>
            <stop stop-color="#EEF1F6" offset="100%"></stop>
        </linearGradient>
        <path d="M0.579710145,45.4881301 C2.89855072,35.1499187 5.79710145,26.017832 9.27536232,18.0918699 C14.4927536,6.20292683 17.3913043,3.61837398 18.5507246,2.58455285 C19.7101449,1.55073171 26.0869565,-2.58455285 26.6666667,7.23674797 C27.2463768,17.0580488 19.1304348,23.7778862 15.0724638,28.4300813 C11.0144928,33.0822764 10.4347826,33.599187 6.95652174,37.217561 C4.63768116,39.6298103 2.51207729,42.3866667 0.579710145,45.4881301 Z" id="path-2"></path>
        <path d="M0,98.0891298 C0,92.695913 2.92989359,85.448778 8.78968077,76.3477247 C17.5793615,62.6961448 32.2288295,41.4603538 35.1587231,36.4042131 C38.0886167,31.3480724 42.7764464,19.2133347 42.1904677,9.10105328 C41.604489,-1.01122814 38.6745954,-5.05614071 24.0251274,10.1122814 C18.0580003,16.2907927 11.1003834,32.197528 6.4457659,55.1119337 C5.31624925,60.6724771 3.00047966,69.2264502 1.75793615,79.8870232 C1.13737457,85.2112168 0.551395848,91.2785856 0,98.0891298 Z" id="path-4"></path>
        <path d="M47.3993456,84.0045368 C41.1574564,58.5181304 35.3056854,40.409368 29.8440324,29.6782495 C21.6515529,13.5815718 0,-13.5815718 0,8.55136003 C0,23.3066479 4.48635781,40.7447154 13.4590734,60.8655626 L44.47346,112.676744 C48.3746407,122.737168 50.3252311,126.929011 50.3252311,125.252273 C50.3252311,123.575536 49.3499359,109.826291 47.3993456,84.0045368 Z" id="path-6"></path>
        <path d="M50.5758932,95.2310549 C50.5758932,94.2233189 45.8711589,56.9370857 41.1664247,44.3403854 C36.4616904,31.743685 27.6403137,13.1005684 19.9951205,6.5502842 C12.3499274,3.08808534e-13 -2.35236712,-5.54254817 0.588091781,12.5967004 C2.54839772,24.6895328 9.01740731,38.4619252 19.9951205,53.9138776 C39.9902411,82.8023105 50.183832,97.918351 50.5758932,99.261999 C51.1639849,101.277471 50.5758932,96.2387909 50.5758932,95.2310549 Z" id="path-8"></path>
        <path d="M35.2276618,55.2647192 C31.0423775,38.6305184 27.7698625,27.5434606 25.4101167,22.0035456 C21.5010222,12.8262645 15.7071542,7.11182514 13.282561,4.60539327 C6.35252917,-2.55855182 -1.73250796,-1.53513109 0.577502652,9.7224969 C2.88751326,20.9801249 11.550053,31.2143322 16.1700743,34.7963047 C20.7900955,38.3782773 24.832614,41.4485394 27.7201273,44.0070913 C29.6451361,45.7127925 32.1476476,49.4653351 35.2276618,55.2647192 Z" id="path-10"></path>
        <path d="M10.6521739,173.317073 C7.28832952,146.367868 4.85888635,128.345588 3.36384439,119.250231 C1.12128146,105.607196 -1.12128146,71.7522577 2.24256293,52.5509493 C5.60640732,33.3496409 7.28832952,24.2542843 11.2128146,14.1483325 C15.1372998,4.04238072 25.228833,-10.6112494 29.7139588,13.6430349 C34.1990847,37.8973192 29.7139588,66.1939842 28.0320366,75.2893408 C27.3415344,79.0233802 23.8564426,93.3106916 19.6224256,117.229041 C17.8614593,127.176901 14.8713754,145.872912 10.6521739,173.317073 Z" id="path-12"></path>
        <path d="M0.38647343,30.3254201 C1.93236715,23.4332791 3.8647343,17.3452213 6.18357488,12.0612466 C9.66183575,4.13528455 11.5942029,2.41224932 12.3671498,1.72303523 C13.1400966,1.03382114 17.3913043,-1.72303523 17.7777778,4.82449864 C18.1642512,11.3720325 12.7536232,15.8519241 10.0483092,18.9533875 C7.34299517,22.0548509 6.95652174,22.399458 4.63768116,24.8117073 C3.09178744,26.4198735 1.6747182,28.2577778 0.38647343,30.3254201 Z" id="path-14"></path>
        <path d="M0,66.1193393 C0,62.4839117 1.96721427,57.5988059 5.9016428,51.4640219 C11.8032856,42.2618458 21.6393569,27.9473496 23.6065712,24.5391362 C25.5737855,21.1309229 28.7213283,12.9512108 28.3278855,6.13478406 C27.9344426,-0.681642674 25.9672283,-3.40821337 16.131157,6.81642674 C12.1246574,10.981201 7.45311459,21.7035188 4.32787139,37.1495257 C3.56948164,40.8977439 2.01460777,46.6637553 1.18032856,53.8497712 C0.76366578,57.438672 0.370222927,61.5285281 0,66.1193393 Z" id="path-16"></path>
        <path d="M31.8252749,56.6252804 C27.6342922,39.4455546 23.7052459,27.2389073 20.038136,20.0053386 C14.5374712,9.15498545 0,-9.15498545 0,5.7642501 C0,15.7104071 3.01226882,27.4649563 9.03680645,41.0278977 L29.8607517,75.9524718 C32.4801159,82.7339426 33.789798,85.5595553 33.789798,84.4293102 C33.789798,83.2990651 33.134957,74.0310552 31.8252749,56.6252804 Z" id="path-18"></path>
        <path d="M33.9580997,64.1927852 C33.9580997,63.5134964 30.7992067,38.3798133 27.6403137,29.8887042 C24.4814207,21.3975951 18.5584963,8.83075351 13.4252952,4.41537676 C8.29209411,2.08055795e-13 -1.5794465,-3.73608803 0.394861624,8.49110915 C1.71106704,16.6425739 6.05454491,25.9261866 13.4252952,36.3419472 C26.8505905,55.8148908 33.6948586,66.0042218 33.9580997,66.9099401 C34.3529613,68.2685175 33.9580997,64.8720739 33.9580997,64.1927852 Z" id="path-20"></path>
        <path d="M23.6528586,37.2525145 C20.8427392,26.0398309 18.6454791,18.5663327 17.0610783,14.8320196 C14.4364006,8.64585233 10.5462321,4.79389694 8.91829095,3.1043762 C4.26526959,-1.72465345 -1.16325534,-1.03479207 0.38775178,6.5536831 C1.9387589,14.1421583 7.75503561,21.0407721 10.8570499,23.4552869 C13.9590641,25.8698017 16.6733266,27.9393858 18.6120855,29.6640393 C19.9045914,30.8138083 21.5848491,33.3433 23.6528586,37.2525145 Z" id="path-22"></path>
        <path d="M7.10144928,117.065041 C4.85888635,98.8625076 3.23925756,86.6895636 2.24256293,80.5462087 C0.747520976,71.3311764 -0.747520976,48.4642442 1.49504195,35.4949394 C3.73760488,22.5256346 4.85888635,16.3822797 7.47520976,9.55632985 C10.0915332,2.73037996 16.819222,-7.16724739 19.8093059,9.21503235 C22.7993898,25.5973121 19.8093059,44.7099718 18.6880244,50.8533267 C18.2276896,53.375441 15.9042951,63.0256426 13.0816171,79.1810187 C11.9076395,85.9001873 9.91425025,98.5281946 7.10144928,117.065041 Z" id="path-24"></path>
        <path d="M10.1857797,141 C3.3952599,126.989192 0,117.334162 0,112.034909 C0,104.08603 0,98.2398571 5.09288985,95.8049817 C10.1857797,93.3701063 16.7529077,100.923473 20.6008689,99.0185228 C24.4488301,97.1135727 26.0244082,92.4415784 23.3126386,76.4573013 C20.6008689,60.4730243 18.9084169,48.7482342 23.3126386,42.5822523 C27.7168602,36.4162703 33.5753479,33.97367 35.6051068,39.7750387 C37.6348656,45.5764074 44.8351837,57.3058324 49.369594,42.5822523 C53.9040042,27.8586721 51.6534256,16.7302411 57.4897221,10.1285771 C63.3260185,3.52691312 70.3434538,-1.27316785 72.0312895,10.1285771 C73.7191251,21.5303221 74.9279861,23.6887936 82.9271889,15.4046554 C90.9263916,7.12051725 99.2643806,2.62464966 107.624561,0.392165577 C115.984741,-1.8403185 129.28913,5.4921171 113.999365,21.538193 C98.7095996,37.5842689 91.9605035,32.2911959 84.9983714,42.5822523 C78.0362393,52.8733086 89.2857192,47.671389 91.9605035,47.671389 C94.6352877,47.671389 103.931938,48.3278733 97.9462209,58.8786135 C91.9605035,69.4293538 82.1933985,68.5933955 77.8809006,72.5253484 C73.5684028,76.4573013 68.9259951,79.148642 72.0312895,82.203051 C75.1365838,85.25746 101.087042,82.7885953 90.1911421,95.8049817 C79.2952427,108.821368 71.1510499,101.218662 65.7970431,107.483522 C60.4430363,113.748382 71.6404822,118.463182 77.8809006,119.913093 C84.1213191,121.363004 91.9605035,133.257208 72.0312895,141 L45.675492,141 L31.193488,141 L10.1857797,141 Z" id="path-26"></path>
        <path d="M10,10 C12,6.66666667 14,4.33333333 16,3 C19,1 22,3 25,2 C28,1 32,-1.75 33,2 C34,5.75 33,8 30,11 C27,14 27,16 27,19 C27,22 29,29 21,33 C15.6666667,35.6666667 8.66666667,34.3333333 0,29 L10,10 Z" id="path-28"></path>
        <path d="M13.9672592,49 C10.9868374,49 -0.934849593,43.9492789 0.0586243253,34.8579808 C1.05209824,25.7666828 7.01294176,26.776827 6.01946784,21.7261058 C5.02599392,16.6753847 6.01946784,12.6348078 8.99988959,10.6145193 C11.9803113,8.59423087 14.9607331,6.57394242 15.954207,4.55365396 C16.9476809,2.53336551 19.9281027,-2.51735564 22.9085245,1.52322128 C25.8889462,5.56379819 21.9150505,9.6043751 22.9085245,12.6348078 C23.9019984,15.6652405 24.8954723,17.6855289 24.8954723,19.7058174 C24.8954723,21.7261058 22.9085245,23.7463943 23.9019984,25.7666828 C24.8954723,27.7869712 29.8628419,31.8275481 28.869368,36.8782693 C27.875894,41.9289904 26.8824201,44.9594231 22.9085245,46.9797115 C18.9346288,49 16.9476809,49 13.9672592,49 Z" id="path-30"></path>
        <path d="M8.75333567,50.3148729 C2.97744894,47.0101767 0.0895055792,44.3977475 0.0895055792,42.4775853 C0.0895055792,39.5973421 -0.863049804,29.8543052 3.44682744,29.3623438 C7.75670469,28.8703825 7.6243613,30.9109039 9.53343445,31.9096013 C11.4425076,32.9082988 14.6487035,33.4958199 13.6393434,27.7039839 C12.6299833,21.9121479 12.0000281,17.6637191 13.6393434,15.4295013 C15.2786588,13.1952835 17.4592731,12.3102175 18.2147789,14.4123192 C18.9702846,16.5144209 21.6503477,20.7645291 23.3381212,15.4295013 C25.0258946,10.0944735 23.9097064,7.09163103 26.0820608,4.69954564 C28.2544153,2.30746026 31.7731338,-0.516801563 31.7731338,3.67004763 C31.7731338,7.85689682 32.8513264,8.58353544 35.828746,5.58181257 C38.8061656,2.58008969 41.9096864,0.951030844 45.0214671,0.142099559 C48.1332477,-0.666831725 53.0853347,1.9900457 47.3942618,7.8042743 C41.7031888,13.6185029 39.1910771,11.70058 36.5996703,15.4295013 C34.0082635,19.1584226 38.1954835,17.2735287 39.1910771,17.2735287 C40.1866707,17.2735287 43.6470192,17.5114031 41.4190482,21.3344198 C39.1910771,25.1574364 35.5556186,24.8545304 33.9504441,26.2792572 C32.3452697,27.7039839 30.6172981,28.67918 31.7731338,29.7859323 C32.9289695,30.8926847 39.8843582,31.6854111 35.828746,35.8789483 C31.7731338,40.0724855 31.2997226,38.6202454 29.3068834,40.8902913 C27.3140442,43.1603372 31.9841932,43.8830571 33.1725179,45.1185667 C34.3608425,46.3540763 38.2425578,53.285806 33.9504441,56.428602 C31.0890351,58.5237993 27.0932612,58.5237993 21.9631227,56.428602 L16.5727102,54.8348114 L8.75333567,50.3148729 Z" id="path-32"></path>
    </defs>
    <g id="components" stroke="none" stroke-width="1" fill="none" fill-rule="evenodd">
        <g id="ui-/-widget-/-search.hero-/-landing" transform="translate(-1015.000000, -134.000000)">
            <g id="default-hero-banner-background" transform="translate(1015.000000, 134.000000)">
                <rect id="Sky" fill="url(#linearGradient-1)" x="0" y="0" width="1280" height="200"></rect>
                <g id="Group-9" transform="translate(61.000000, 12.000000)">
                    <g id="Group-23" transform="translate(88.781239, 160.901149) scale(-1, 1) rotate(-330.000000) translate(-88.781239, -160.901149) translate(75.281239, 137.901149)">
                        <mask id="mask-3" fill="white">
                            <use xlink:href="#path-2"></use>
                        </mask>
                        <use id="Path-41" fill="#E0E5ED" xlink:href="#path-2"></use>
                        <path d="M28.4057971,0 C22.4277238,5.87948388 18.1765161,10.7039825 15.6521739,14.4734959 C9.34224089,23.8959021 4.34758777,35.7535713 0,46.5219512" id="Path-46" stroke="#FFFFFF" stroke-linecap="round" stroke-linejoin="round" mask="url(#mask-3)"></path>
                    </g>
                    <g id="Group-25" transform="translate(53.034266, 112.330636) scale(-1, 1) rotate(-326.000000) translate(-53.034266, -112.330636) translate(31.534266, 62.830636)">
                        <mask id="mask-5" fill="white">
                            <use xlink:href="#path-4"></use>
                        </mask>
                        <use id="Path-42" fill="#E0E5ED" xlink:href="#path-4"></use>
                        <path d="M38.9745679,-0.774850778 C35.985879,2.93064494 30.780336,13.715908 23.3579389,31.5809386 C18.3437115,43.649725 16.8718978,54.3879596 13.997068,66.4567461 C13.0766101,70.3209088 10.6145734,75.6002026 6.61095795,82.2946275" id="Path-48" stroke="#FFFFFF" stroke-linecap="round" stroke-linejoin="round" mask="url(#mask-5)"></path>
                    </g>
                    <g id="Group-27" transform="translate(87.740684, 79.858024) scale(-1, 1) rotate(-324.000000) translate(-87.740684, -79.858024) translate(62.240684, 16.858024)">
                        <mask id="mask-7" fill="white">
                            <use xlink:href="#path-6"></use>
                        </mask>
                        <use id="Path-45" fill="#F4F6F9" xlink:href="#path-6"></use>
                        <path d="M2.16913541,-1.97207423 C7.85365858,7.53816992 16.8964354,27.3480129 29.297466,57.4574546 C31.464509,62.7189894 33.2552801,68.7054987 35.0022217,74.1965883 C40.2454055,90.6772726 44.9758275,113.602095 49.1934876,142.971055" id="Path-50" stroke="#FFFFFF" stroke-linecap="round" stroke-linejoin="round" mask="url(#mask-7)"></path>
                    </g>
                    <g id="Group-28" transform="translate(108.969499, 111.624474) scale(-1, 1) rotate(-337.000000) translate(-108.969499, -111.624474) translate(83.469499, 61.624474)">
                        <mask id="mask-9" fill="white">
                            <use xlink:href="#path-8"></use>
                        </mask>
                        <use id="Path-43" fill="#E0E5ED" xlink:href="#path-8"></use>
                        <path d="M1.73165524,-0.818868241 C5.08207231,2.87453055 8.11627582,6.4996415 10.8342658,10.0564646 C29.9178133,35.0296266 42.1728939,65.0456979 50.8469341,100.828365" id="Path-51" stroke="#FFFFFF" stroke-linecap="round" stroke-linejoin="round" mask="url(#mask-9)"></path>
                    </g>
                    <g id="Group-24" transform="translate(116.896943, 147.452639) scale(-1, 1) rotate(-352.000000) translate(-116.896943, -147.452639) translate(98.896943, 119.452639)">
                        <mask id="mask-11" fill="white">
                            <use xlink:href="#path-10"></use>
                        </mask>
                        <use id="Path-40" fill="#F4F6F9" xlink:href="#path-10"></use>
                        <path d="M-10.930107,-3.04722151 C-3.11708379,-0.0111573481 2.08026242,2.54712318 4.66193163,4.62762009 C16.1726712,13.9038116 23.7326332,30.7689554 30.0693437,50.1687416" id="Path-47" stroke="#FFFFFF" stroke-linecap="round" stroke-linejoin="round" mask="url(#mask-11)" transform="translate(9.569618, 23.560760) rotate(7.000000) translate(-9.569618, -23.560760) "></path>
                    </g>
                    <g id="Group-26" transform="translate(57.463173, 84.336787) scale(-1, 1) rotate(-330.000000) translate(-57.463173, -84.336787) translate(41.463173, -2.663213)">
                        <mask id="mask-13" fill="white">
                            <use xlink:href="#path-12"></use>
                        </mask>
                        <use id="Path-44" fill="#E0E5ED" xlink:href="#path-12"></use>
                        <path d="M21.6493575,0.837280547 C14.8641671,25.0443712 11.4715719,51.296249 11.4715719,79.592914 C11.4715719,87.2166721 11.512268,95.488422 11.5936601,104.408164 C11.7407976,120.532932 12.2607423,149.484771 13.1534941,191.263681" id="Path-49" stroke="#FFFFFF" stroke-linecap="round" stroke-linejoin="round" mask="url(#mask-13)"></path>
                    </g>
                    <g id="Group-23" transform="translate(147.600902, 146.912045) scale(-1, 1) rotate(-15.000000) translate(-147.600902, -146.912045) translate(138.600902, 131.412045)">
                        <mask id="mask-15" fill="white">
                            <use xlink:href="#path-14"></use>
                        </mask>
                        <use id="Path-41" fill="#E0E5ED" xlink:href="#path-14"></use>
                        <path d="M18.9371981,0 C14.9518159,3.91965592 12.1176774,7.13598835 10.4347826,9.64899729 C6.22816059,15.9306014 2.89839185,23.8357142 0,31.0146341" id="Path-46" stroke="#FFFFFF" stroke-linecap="round" stroke-linejoin="round" mask="url(#mask-15)"></path>
                    </g>
                    <g id="Group-25" transform="translate(152.808166, 106.656578) scale(-1, 1) rotate(-11.000000) translate(-152.808166, -106.656578) translate(138.308166, 73.156578)">
                        <mask id="mask-17" fill="white">
                            <use xlink:href="#path-16"></use>
                        </mask>
                        <use id="Path-42" fill="#E0E5ED" xlink:href="#path-16"></use>
                        <path d="M26.1686385,-0.522306821 C24.1619473,1.97547177 20.666797,9.24553802 15.6831875,21.2878919 C12.316492,29.423148 11.3282742,36.6615135 9.39803137,44.7967696 C8.78000963,47.4015015 7.12692786,50.9601366 4.43878605,55.4726748" id="Path-48" stroke="#FFFFFF" stroke-linecap="round" stroke-linejoin="round" mask="url(#mask-17)"></path>
                    </g>
                    <g id="Group-27" transform="translate(184.927595, 107.607830) scale(-1, 1) rotate(-9.000000) translate(-184.927595, -107.607830) translate(167.927595, 65.107830)">
                        <mask id="mask-19" fill="white">
                            <use xlink:href="#path-18"></use>
                        </mask>
                        <use id="Path-45" fill="#F4F6F9" xlink:href="#path-18"></use>
                        <path d="M1.45641949,-1.32932411 C5.27317076,5.08128491 11.3447495,18.4345864 19.6711557,38.7305805 C21.1261703,42.2772447 22.3285452,46.3125954 23.5014917,50.0139966 C27.0219152,61.1231986 30.1980556,76.5762269 33.0299131,96.3730815" id="Path-50" stroke="#FFFFFF" stroke-linecap="round" stroke-linejoin="round" mask="url(#mask-19)"></path>
                    </g>
                    <g id="Group-28" transform="translate(179.307758, 132.937348) scale(-1, 1) rotate(-22.000000) translate(-179.307758, -132.937348) translate(161.807758, 98.937348)">
                        <mask id="mask-21" fill="white">
                            <use xlink:href="#path-20"></use>
                        </mask>
                        <use id="Path-43" fill="#E0E5ED" xlink:href="#path-20"></use>
                        <path d="M1.1626828,-0.551977851 C3.41224855,1.93764652 5.44949948,4.38123983 7.27443559,6.77880207 C20.0876747,23.6125631 28.3160859,43.8456186 34.1400844,67.9657865" id="Path-51" stroke="#FFFFFF" stroke-linecap="round" stroke-linejoin="round" mask="url(#mask-21)"></path>
                    </g>
                    <g id="Group-24" transform="translate(166.476433, 153.816205) scale(-1, 1) rotate(-37.000000) translate(-166.476433, -153.816205) translate(154.476433, 134.816205)">
                        <mask id="mask-23" fill="white">
                            <use xlink:href="#path-22"></use>
                        </mask>
                        <use id="Path-40" fill="#F4F6F9" xlink:href="#path-22"></use>
                        <path d="M-7.34810621,-2.05956752 C-2.10094067,-0.0106544827 1.38972894,1.71537874 3.12390261,3.11853216 C10.8559627,9.37469135 15.9376312,20.7448041 20.1987366,33.8229625" id="Path-47" stroke="#FFFFFF" stroke-linecap="round" stroke-linejoin="round" mask="url(#mask-23)" transform="translate(6.425315, 15.881698) rotate(7.000000) translate(-6.425315, -15.881698) "></path>
                    </g>
                    <g id="Group-26" transform="translate(168.077374, 95.889144) scale(-1, 1) rotate(-15.000000) translate(-168.077374, -95.889144) translate(157.077374, 36.889144)">
                        <mask id="mask-25" fill="white">
                            <use xlink:href="#path-24"></use>
                        </mask>
                        <use id="Path-44" fill="#E0E5ED" xlink:href="#path-24"></use>
                        <path d="M14.432905,0.565531597 C9.90944474,16.9159349 7.6477146,34.6474664 7.6477146,53.7601261 C7.6477146,58.9095066 7.67484531,64.4965658 7.72910672,70.5213036 C7.82719843,81.4125941 8.17382821,100.967784 8.76899607,129.186872" id="Path-49" stroke="#FFFFFF" stroke-linecap="round" stroke-linejoin="round" mask="url(#mask-25)"></path>
                    </g>
                    <path d="M36.8772133,158.529659 C38.6880288,157.676352 40.5768149,157.249699 42.5435715,157.249699 C44.510328,157.249699 47.3291376,158.272652 51,160.318558 C47.9004216,162.049918 45.5466238,163.065323 43.9386067,163.364772 C41.5265809,163.813946 39.441619,164.26312 37.6700386,163.813946 C36.4889851,163.514497 35.6116917,162.999618 35.0381585,162.269308 C33.0676533,161.748415 31.9055925,161.200262 31.5519762,160.62485 C31.0215517,159.761731 29.6195816,158.560098 30.0979008,153.726098 C30.4167803,150.503431 30.57622,148.261399 30.57622,147 C33.444136,150.147186 35.1442434,152.054999 35.6765422,152.723438 C36.2088409,153.391878 36.6090647,155.327285 36.8772133,158.529659 Z" id="Path-24" fill="#E0E5ED"></path>
                    <path d="M36,138 C36.0600126,142.828212 36.3001883,146.123479 36.7205273,147.8858 C37.3510358,150.529282 38.8572505,151.712252 39.9461394,151.712252 C40.6720653,151.712252 41.4964218,151.712252 42.419209,151.712252 C43.3324545,153.110923 44.9160075,153.370233 47.1698682,152.490181 C50.5506591,151.170103 50.6263653,150.105393 52.2030132,148.995597 C53.2541117,148.255732 54.519774,147.321478 56,146.192834 C52.6865035,145.269055 50.1914626,145.038111 48.5148776,145.5 C46,146.192834 43.9902072,146.776004 43.5118644,147.8858 C42.8803515,146.727591 42.2582549,145.371666 41.6455744,143.818024 C41.0328939,142.264383 39.1510358,140.325042 36,138 Z" id="Path-25" fill="#E0E5ED"></path>
                    <path d="M48.213429,125.649774 C45.9604157,128.655322 44.4753535,130.856861 43.7582426,132.25439 C42.6825761,134.350684 42.1426711,136.796689 42.6830766,138.799998 C43.2234822,140.803308 47.1390195,142.22202 48.2146831,136.797371 C48.9317921,133.180938 48.9313741,129.465072 48.213429,125.649774 Z" id="Path-26" fill="#E0E5ED" transform="translate(45.611543, 133.119148) rotate(-7.000000) translate(-45.611543, -133.119148) "></path>
                    <path d="M13.8772133,142.529659 C15.6880288,141.676352 17.5768149,141.249699 19.5435715,141.249699 C21.510328,141.249699 24.3291376,142.272652 28,144.318558 C24.9004216,146.049918 22.5466238,147.065323 20.9386067,147.364772 C18.5265809,147.813946 16.441619,148.26312 14.6700386,147.813946 C13.4889851,147.514497 12.6116917,146.999618 12.0381585,146.269308 C10.0676533,145.748415 8.90559254,145.200262 8.55197621,144.62485 C8.0215517,143.761731 6.61958164,142.560098 7.09790084,137.726098 C7.4167803,134.503431 7.57622003,132.261399 7.57622003,131 C10.444136,134.147186 12.1442434,136.054999 12.6765422,136.723438 C13.2088409,137.391878 13.6090647,139.327285 13.8772133,142.529659 Z" id="Path-24" fill="#E0E5ED" transform="translate(17.500000, 139.500000) scale(-1, 1) translate(-17.500000, -139.500000) "></path>
                    <path d="M18.097319,123.474247 C15.8436294,126.480302 14.3580719,128.682175 13.6406465,130.079865 C12.5645084,132.176401 12.024053,134.622526 12.5640079,136.625715 C13.1039627,138.628903 17.0191809,140.046735 18.096065,134.621844 C18.8139877,131.00525 18.8144057,127.289384 18.097319,123.474247 Z" id="Path-26" fill="#E0E5ED" transform="translate(15.493509, 130.943970) scale(-1, 1) rotate(7.000000) translate(-15.493509, -130.943970) "></path>
                </g>
                <g id="Group-11" transform="translate(468.000000, 17.000000)">
                    <path d="M285,183 L0.14757354,183 C-0.74001226,178.308561 2.37621193,173.617122 9.4962461,168.925682 C20.1762974,161.888524 24.1813166,168.925682 30.8563486,163.295955 C37.5313807,157.666228 41.5363999,153.443933 48.2114319,156.258796 C54.886464,159.07366 54.886464,157.666228 61.561496,144.999342 C68.2365281,132.332456 77.5815729,129.517593 90.931637,126.702729 C104.281701,123.887866 118.81557,130.925025 122.89619,133.739888 C126.97681,136.554752 136.321855,143.591911 141.66188,133.739888 C147.001906,123.887866 147.001906,109.813548 157.681957,111.22098 C168.362009,112.628412 176.372047,123.887866 177.707054,122.480434 C179.04206,121.073002 179.04206,95.7392305 205.742188,80.2574811 C223.542274,69.9363148 244.012372,78.3809054 267.152483,105.591253 L285,183 Z" id="Path-39" fill="#F4F6F9"></path>
                    <g id="Group-36-Copy" transform="translate(57.000000, 42.000000)">
                        <mask id="mask-27" fill="white">
                            <use xlink:href="#path-26"></use>
                        </mask>
                        <use id="Path-90" fill="#E0E5ED" xlink:href="#path-26"></use>
                        <path d="M123.813953,4.23 C79.3956162,10.1389275 46.5661589,60.4289275 25.3255814,155.1" id="Path-91" stroke="#FFFFFF" stroke-linecap="round" stroke-linejoin="round" mask="url(#mask-27)"></path>
                    </g>
                    <g id="Group-35-Copy" transform="translate(200.000000, 0.000000)" stroke="#F4F6F9" stroke-linecap="round" stroke-linejoin="round">
                        <path d="M84.0949747,15.5833333 C82.8787963,7.68278399 83.3637183,2.78247661 85.5497409,0.882411198 C87.4025495,-0.7280285 89.4182859,0.135905925 89.931635,1.32931501 C90.6115441,2.90993439 90.7997806,4.91290393 89.931635,8.21678584 C89.3528713,10.4193738 87.4073179,12.8748896 84.0949747,15.5833333 Z" id="Path-80" fill="#FFFFFF"></path>
                        <path d="M60.0521175,35.4166667 C58.8359391,28.2343491 59.3208612,23.7795242 61.5068838,22.052192 C63.3596924,20.5881559 65.3754288,21.3735508 65.8887779,22.4584682 C66.5686869,23.8953949 66.7569234,25.7162763 65.8887779,28.7198053 C65.3100142,30.722158 63.3644607,32.9544451 60.0521175,35.4166667 Z" id="Path-80" fill="#FFFFFF"></path>
                        <path d="M76.0347372,22.6666667 C71.8102514,17.992133 69.3079453,14.7577387 68.5278189,12.9634838 C67.23418,9.98817418 68.0978292,7.16602712 69.3325403,6.21975483 C71.3256843,4.69222582 77.3218416,6.21975483 77.7214725,12.1686153 C77.9878931,16.1345222 77.425648,19.6338727 76.0347372,22.6666667 Z" id="Path-80" fill="#FFFFFF"></path>
                        <path d="M80.6142857,26.9166667 C86.7091122,19.3611111 91.286633,15.5833333 94.3468482,15.5833333 C96.3040909,15.5833333 98.0488007,16.3501114 98.6151315,17.5701364 C99.3652125,19.1860075 99.1308122,21.3770033 96.9065729,23.8876 C95.4237468,25.5613311 89.9929843,26.57102 80.6142857,26.9166667 Z" id="Path-80" fill="#FFFFFF"></path>
                        <path d="M73.5428571,34.3459732 C77.886346,32.2704499 82.0482772,32.0278862 86.0286508,33.6182823 C87.1088378,34.0498813 88.2743995,35.0901728 88.6956856,36.0238974 C89.2536611,37.2605759 89.4577804,38.3812018 87.8031978,40.3026428 C87.1381317,41.0749737 83.0783662,41.8358478 81.3214286,39.629625 C80.2537983,38.2889797 77.6609411,36.5277624 73.5428571,34.3459732 Z" id="Path-80" fill="#FFFFFF"></path>
                        <path d="M63.6428571,41.3442025 C69.7590401,40.5874881 74.3716078,41.4770491 77.4805602,44.0128858 C78.22895,44.6233146 80.3648732,48.1146432 78.372601,50.2210589 C77.6920064,50.940647 74.3951988,51.9270996 71.4214286,49.1749293 C70.756067,48.5591492 69.7653671,47.3139116 68.3812438,45.9248475 C67.5326039,45.0731783 65.9531417,43.5462967 63.6428571,41.3442025 Z" id="Path-80" fill="#FFFFFF"></path>
                        <path d="M77.7857143,63.75 C79.2183134,61.7040157 80.6509125,59.9137793 82.0835116,58.3792911 C84.2324103,56.0775587 88.5302077,52.241338 90.6791064,54.5430704 C92.828005,56.8448028 92.1117055,59.1465352 89.2465072,61.4482676 C87.3363751,62.9827559 83.5161108,63.75 77.7857143,63.75 Z" id="Path-80" fill="#FFFFFF"></path>
                        <path d="M66.5266741,63.149231 C67.9083138,58.4067444 69.3125529,55.2447771 70.7393916,53.6633292 C72.599751,51.6013851 75.1946766,52.454742 75.7333269,53.6633292 C76.4467463,55.2640512 77.1601656,58.2920285 74.3064883,60.6063782 C72.4040367,62.149278 69.8107653,62.9968956 66.5266741,63.149231 Z" id="Path-80" fill="#FFFFFF"></path>
                        <path d="M56.8576695,60.9294637 C57.6096994,56.7628968 58.7591362,53.6401044 60.30598,51.5610866 C62.095958,49.1552871 64.1113875,49.3704515 64.9465114,50.0018233 C68.040199,52.3407183 65.7199333,56.2388767 64.1730895,57.79814 C63.0298259,58.9505828 60.5913526,59.9943573 56.8576695,60.9294637 Z" id="Path-80" fill="#FFFFFF"></path>
                        <path d="M70.8843258,69.4166667 C71.3848464,69.4166667 76.212882,69.8487912 79.8709461,73.6214916 C83.5290102,77.394192 81.7908028,81.3997335 80.0887819,81.9902724 C78.3867609,82.5808114 74.1891234,81.776741 73.0580256,78.2306951 C71.9269278,74.6846492 72.0129156,74.2512124 71.5582551,72.4032941 C71.1035947,70.5553758 70.3838052,69.4166667 70.8843258,69.4166667 Z" id="Path-83" fill="#FFFFFF"></path>
                        <path d="M58.1351863,69.4166667 C58.6123761,69.4166667 60.410463,70.1108341 63.0271507,73.1156878 C65.6438385,76.1205415 65.9283762,80.7347029 62.713237,81.9331418 C59.4980979,83.1315807 57.7608126,79.5307698 58.1351863,75.3932368 C58.50956,71.2557038 57.6579964,69.4166667 58.1351863,69.4166667 Z" id="Path-83" fill="#FFFFFF"></path>
                        <path d="M45.2571429,65.1666667 C47.0797312,65.9780544 48.9461608,67.2701091 50.6155494,69.3450945 C52.284938,71.42008 53.5299306,75.5656729 50.4054987,76.3854517 C47.2810668,77.2052306 46.1958989,73.4491573 45.8202335,70.718446 C45.4445681,67.9877348 45.4928097,66.2057099 45.2571429,65.1666667 Z" id="Path-83" fill="#FFFFFF"></path>
                        <path d="M0,85 C9.75369458,66.5 22.6773399,58.5 38.770936,61 C49.3976097,62.6507612 54.9941596,65.4893614 61.4482759,66.25 C69.6558415,67.2172883 77.8955294,65.3778686 84.8571429,59.5" id="Path-70"></path>
                        <path d="M60.405814,66.0645345 C64.9028676,64.0520888 68.0035172,62.1016303 69.7077629,60.213159 C70.6603359,59.1576146 71.5562404,58.0035809 72.3954764,56.7510579" id="Path-81"></path>
                        <path d="M52.3285714,63.75 C56.8978022,61.3888889 60.1978022,58.5555556 62.2285714,55.25" id="Path-81"></path>
                        <path d="M65.0571429,66.5833333 C71.0470588,68.6175214 75.289916,71.9230769 77.7857143,76.5" id="Path-82"></path>
                        <path d="M53.0964844,64.247701 C57.3281835,68.6064936 59.9621091,72.1878459 60.9982613,74.9917581 C61.4975547,76.3428869 61.9076581,77.7900786 62.2285714,79.3333333" id="Path-84"></path>
                        <path d="M41.2076451,61.4627889 C45.2140974,64.4275513 48.127804,68.242452 49.948765,72.907491" id="Path-84"></path>
                        <path d="M8.48571429,72.25 C19.9413626,57.5159378 31.6525762,48.7252684 43.6193553,45.8779918 C61.5695239,41.6070769 81.0276227,29.8766777 86.2714286,8.5" id="Path-85"></path>
                        <path d="M90.5142857,21.25 C86.9863979,23.8370768 83.7945295,25.6654968 80.9386806,26.73526 C76.2956833,28.4744653 73.2881228,30.4536748 71.3630755,32.22052" id="Path-86"></path>
                        <path d="M73.5428571,11.3333333 C76.2354379,18.6582916 77.0056725,24.3249582 75.853561,28.3333333" id="Path-87"></path>
                        <path d="M65.4038086,36.5639038 C72.7279989,34.3070145 77.8596703,33.8381344 80.798823,35.1572634 C81.2078409,35.3408359 81.617757,35.5462479 82.0285714,35.7734994" id="Path-88"></path>
                        <path d="M58.9380092,40.594279 C66.4949079,41.4541016 71.131965,43.1037665 72.8491804,45.5432739" id="Path-88"></path>
                        <path d="M62.2285714,28.3333333 C61.0095828,34.4908185 58.647721,39.0155513 55.1429862,41.9075317" id="Path-89"></path>
                    </g>
                    <g id="Group-19" transform="translate(213.500000, 53.500000) scale(-1, 1) translate(-213.500000, -53.500000) translate(194.000000, 31.000000)">
                        <path d="M30.6428571,45 C28.0898278,28.1728626 21.1255421,15.5166126 9.75,7.03125" id="Path-216" stroke="#E0E5ED" stroke-linecap="round" stroke-linejoin="round"></path>
                        <path d="M32.0357143,39.0731271 C32.9721027,36.2967082 33.8388684,34.6582325 34.6360116,34.1577002 C35.8317263,33.4069016 37.7647811,33.6998676 38.5537454,34.980405 C39.3427097,36.2609425 39.1476064,37.6982184 37.4674069,38.7532286 C36.3472739,39.4565688 34.5367097,39.5632016 32.0357143,39.0731271 Z" id="Path-217" fill="#E0E5ED"></path>
                        <path d="M29.25,40.4740527 C27.6558753,38.1115576 26.2591643,36.8238494 25.059867,36.610928 C23.2609211,36.2915459 21.2222979,37.6046568 20.9361969,38.9980328 C20.650096,40.3914089 21.7955189,41.7496755 23.9270297,42.1281007 C25.348037,42.3803842 27.1223604,41.8290348 29.25,40.4740527 Z" id="Path-218" fill="#E0E5ED"></path>
                        <path d="M29.25,32.1517834 C30.4278433,29.3821195 31.4547995,27.7374448 32.3308687,27.2177593 C33.6449725,26.4382311 35.5762082,26.5392879 36.665376,27.752972 C37.7545437,28.9666561 38.2436664,30.3118477 36.1970333,31.5259133 C34.8326112,32.3352904 32.5169334,32.5439137 29.25,32.1517834 Z" id="Path-219" fill="#E0E5ED"></path>
                        <path d="M26.4642857,33.2801402 C24.2255577,30.971588 22.423435,29.732348 21.0579174,29.5624203 C19.009641,29.3075288 16.951089,30.6581531 16.73906,32.0699142 C16.527031,33.4816752 17.6749094,34.7983076 20.223912,35.1155104 C21.923247,35.326979 24.0033716,34.7151889 26.4642857,33.2801402 Z" id="Path-220" fill="#E0E5ED"></path>
                        <path d="M26.4642857,23.7745054 C27.1903365,20.9938603 27.9558092,19.324102 28.7607041,18.7652306 C29.9680463,17.9269235 31.9530244,18.2118623 32.828637,19.3554759 C33.7042495,20.4990896 33.7645784,21.843377 32.0362972,23.0433934 C30.8841097,23.8434043 29.0267726,24.0871083 26.4642857,23.7745054 Z" id="Path-221" fill="#E0E5ED"></path>
                        <path d="M19.6419746,14.0625 C19.3215376,11.9587692 19.543521,10.4674102 20.3079249,9.58842305 C21.4545307,8.26994227 23.3614996,8.19784578 24.2165317,8.80222162 C25.0715638,9.40659747 25.6098725,10.7490043 24.2165317,12.3512053 C23.2876379,13.4193394 21.7627855,13.9897709 19.6419746,14.0625 Z" id="Path-222" fill="#E0E5ED"></path>
                        <path d="M23.6785714,18.28125 C23.8875219,15.9066812 24.3315657,14.3475377 25.0107028,13.6038195 C26.0294085,12.4882422 27.5751559,12.3982413 28.3904854,13.1212664 C29.205815,13.8442916 29.8259741,15.0289794 28.3904854,16.6009728 C27.433493,17.6489685 25.862855,18.2090609 23.6785714,18.28125 Z" id="Path-223" fill="#E0E5ED"></path>
                        <path d="M15.6555481,9.84375 C15.2100554,7.92125941 15.2100554,6.51098086 15.6555481,5.61291434 C16.3237871,4.26581458 17.5082051,3.93693448 18.3333135,4.44565596 C19.1584218,4.95437745 19.9281517,6.20685386 19.2238972,7.81298403 C18.7543942,8.88373749 17.6685493,9.56065948 15.9663623,9.84375" id="Path-224" fill="#E0E5ED"></path>
                        <path d="M10.0983636,5.625 C9.63387879,3.78840553 9.63387879,2.40312568 10.0983636,1.46916045 C10.7950909,0.0682126105 12.0317223,-0.260583625 12.8028634,0.186913765 C13.5740045,0.634411155 14.422023,1.79090753 13.5778528,3.48832703 C13.0150726,4.61994003 11.8552429,5.33216435 10.0983636,5.625 Z" id="Path-225" fill="#E0E5ED"></path>
                        <path d="M23.6785714,26.2524951 C21.6771265,24.6883317 20.1719979,23.90625 19.1631855,23.90625 C17.6499671,23.90625 16.6301121,25.2453996 16.7197597,26.2524951 C16.8094072,27.2595906 17.6159768,28.125 19.5387215,28.125 C20.8205513,28.125 22.2005013,27.5008317 23.6785714,26.2524951 Z" id="Path-226" fill="#E0E5ED"></path>
                        <path d="M19.5,20.5776449 C17.9515622,19.046715 16.6329496,18.28125 15.5441623,18.28125 C13.9109813,18.28125 12.5357143,19.5763977 12.5357143,20.5776449 C12.5357143,21.5788921 13.6742981,22.5 15.5441623,22.5 C16.7907384,22.5 18.109351,21.859215 19.5,20.5776449 Z" id="Path-227" fill="#E0E5ED"></path>
                        <path d="M11.3388943,12.850123 C9.9224279,13.4504237 9.47487729,14.9716865 9.90908776,15.8020273 C10.3432982,16.6323681 11.7347149,17.260204 13.2984964,16.5974709 C14.3410175,16.1556488 15.0153282,15.1259147 15.3214286,13.5082687 C13.6107166,12.6693045 12.2832052,12.4499226 11.3388943,12.850123 Z" id="Path-228" fill="#E0E5ED"></path>
                        <path d="M9.75,10.2287162 C7.83282437,9.71542795 6.40676253,9.71542795 5.47181449,10.2287162 C4.06939243,10.9986485 3.96860877,12.4635222 4.41376861,13.1583171 C4.85892845,13.8531121 5.94626457,14.5415052 7.63946553,13.6119347 C8.76826617,12.9922211 9.47177766,11.8644815 9.75,10.2287162 Z" id="Path-229" fill="#E0E5ED"></path>
                        <path d="M6.77169654,5.625 C6.77169654,5.625 4.36453019,3.72524995 4.19874748,2.52069706 C4.03296476,1.31614417 4.91158192,0.0873467409 5.99827349,0.00542156183 C7.08496506,-0.0765036172 8.14454115,0.775237289 8.34178135,2.20835564 C8.53902155,3.64147399 6.77169654,5.625 6.77169654,5.625 Z" id="Path-230" fill="#E0E5ED"></path>
                        <path d="M5.57142857,6.1843571 C4.052605,4.8107261 2.86674456,4.15704905 2.01384725,4.22332595 C0.734501287,4.32274129 -0.0889153004,5.61721634 0.00767401831,6.61670502 C0.104263337,7.6161937 0.861933459,8.5479409 2.42007157,8.42686119 C3.45883031,8.34614139 4.50928264,7.59864003 5.57142857,6.1843571 Z" id="Path-231" fill="#E0E5ED"></path>
                    </g>
                </g>
                <g id="Group-15" transform="translate(1020.000000, 17.000000)">
                    <g id="Group-20">
                        <g id="Group-18" transform="translate(151.000000, 85.572965) scale(-1, 1) rotate(12.000000) translate(-151.000000, -85.572965) translate(116.000000, 6.072965)">
                            <path d="M45.4205497,23.7910124 C34.9885019,51.2079633 29.1117085,72.5103294 27.7901695,87.6981106 C26.4686306,102.885892 28.6908654,123.583526 34.4568739,149.791012" id="Path-166" stroke="#E0E5ED" stroke-linecap="round" stroke-linejoin="round"></path>
                            <path d="M27.1580071,94.2930855 C35.8599503,85.2421407 43.526617,79.2421407 50.1580071,76.2930855" id="Path-167" stroke="#E0E5ED" stroke-linecap="round" stroke-linejoin="round"></path>
                            <polyline id="Path-168" stroke="#E0E5ED" stroke-linecap="round" stroke-linejoin="round" points="53.4392366 65.4257128 50.7445474 76.4257128 48.4392366 66.6968478"></polyline>
                            <line x1="50.7785766" y1="75.6543171" x2="58.7785766" y2="68.6543171" id="Path-169" stroke="#E0E5ED" stroke-linecap="round" stroke-linejoin="round"></line>
                            <line x1="50.4132379" y1="75.6927157" x2="59.4132379" y2="74.6927157" id="Path-170" stroke="#E0E5ED" stroke-linecap="round" stroke-linejoin="round"></line>
                            <line x1="50.0697515" y1="75.939026" x2="58.0697515" y2="80.939026" id="Path-171" stroke="#E0E5ED" stroke-linecap="round" stroke-linejoin="round"></line>
                            <circle id="Oval-2" stroke="#E0E5ED" stroke-linecap="round" stroke-linejoin="round" cx="46.9345299" cy="64.109385" r="2"></circle>
                            <circle id="Oval-2" stroke="#E0E5ED" stroke-linecap="round" stroke-linejoin="round" cx="53.9894748" cy="63.6321508" r="2"></circle>
                            <circle id="Oval-2" stroke="#E0E5ED" stroke-linecap="round" stroke-linejoin="round" cx="29.5217322" cy="35.0956904" r="2"></circle>
                            <circle id="Oval-2" stroke="#E0E5ED" stroke-linecap="round" stroke-linejoin="round" cx="61.3751531" cy="74.3303635" r="2"></circle>
                            <circle id="Oval-2" stroke="#E0E5ED" stroke-linecap="round" stroke-linejoin="round" cx="59.8960922" cy="81.8011318" r="2"></circle>
                            <circle id="Oval-2" stroke="#E0E5ED" stroke-linecap="round" stroke-linejoin="round" cx="59.5346533" cy="68.0763599" r="1.5"></circle>
                            <path d="M10.55915,37.509155 C18.3064284,48.2450629 24.6397618,60.2450629 29.55915,73.509155" id="Path-172" stroke="#E0E5ED" stroke-linecap="round" stroke-linejoin="round"></path>
                            <path d="M11.7177369,54.018008 C15.4135233,54.427164 19.4135233,56.0938306 23.7177369,59.018008" id="Path-173" stroke="#E0E5ED" stroke-linecap="round" stroke-linejoin="round"></path>
                            <polyline id="Path-174" stroke="#E0E5ED" stroke-linecap="round" stroke-linejoin="round" points="7.61230734 49.5005484 11.3577268 54.5005484 12.6123073 50.9128661"></polyline>
                            <circle id="Oval-2" stroke="#E0E5ED" stroke-linecap="round" stroke-linejoin="round" cx="6.13830609" cy="47.7335455" r="1.5"></circle>
                            <circle id="Oval-2" stroke="#E0E5ED" stroke-linecap="round" stroke-linejoin="round" cx="12.6309268" cy="49.4205181" r="1.5"></circle>
                            <circle id="Oval-2" stroke="#E0E5ED" stroke-linecap="round" stroke-linejoin="round" cx="25.162613" cy="31.4217171" r="1.5"></circle>
                            <circle id="Oval-2" stroke="#E0E5ED" stroke-linecap="round" stroke-linejoin="round" cx="30.5919961" cy="42.5357532" r="1.5"></circle>
                            <circle id="Oval-2" stroke="#E0E5ED" stroke-linecap="round" stroke-linejoin="round" cx="4.45133343" cy="54.2261662" r="1.5"></circle>
                            <circle id="Oval-2" stroke="#E0E5ED" stroke-linecap="round" stroke-linejoin="round" cx="8.84115807" cy="60.4494643" r="1.5"></circle>
                            <circle id="Oval-2" stroke="#E0E5ED" stroke-linecap="round" stroke-linejoin="round" cx="19.9174625" cy="35.60363" r="1.5"></circle>
                            <circle id="Oval-2" stroke="#E0E5ED" stroke-linecap="round" stroke-linejoin="round" cx="5.18383762" cy="33.6236557" r="1.5"></circle>
                            <circle id="Oval-2" stroke="#E0E5ED" stroke-linecap="round" stroke-linejoin="round" cx="2.10289398" cy="38.3678929" r="1.5"></circle>
                            <polyline id="Path-175" stroke="#E0E5ED" stroke-linecap="round" stroke-linejoin="round" points="9.27531443 58.932918 10.4985851 53.932918 6.4985851 53.932918"></polyline>
                            <path d="M20.6826387,52.6553419 C21.373668,47.5127498 23.0403346,43.1794165 25.6826387,39.6553419" id="Path-176" stroke="#E0E5ED" stroke-linecap="round" stroke-linejoin="round"></path>
                            <polyline id="Path-177" stroke="#E0E5ED" stroke-linecap="round" stroke-linejoin="round" points="21.6528466 36.8332293 25.6528466 39.3431605 25.0507272 33.3431605"></polyline>
                            <polyline id="Path-178" stroke="#E0E5ED" stroke-linecap="round" stroke-linejoin="round" points="28.4415033 36.642942 25.3149803 39.6250796 29.3149803 41.642942"></polyline>
                            <path d="M10.9466942,38.6245691 C12.9466942,34.822877 13.9466942,31.822877 13.9466942,29.6245691" id="Path-179" stroke="#E0E5ED" stroke-linecap="round" stroke-linejoin="round"></path>
                            <circle id="Oval-2" stroke="#E0E5ED" stroke-linecap="round" stroke-linejoin="round" cx="13.5406372" cy="27.2468304" r="2"></circle>
                            <circle id="Oval-2" stroke="#E0E5ED" stroke-linecap="round" stroke-linejoin="round" cx="8.23407583" cy="26.3300937" r="2"></circle>
                            <path d="M8.68945767,28.1771269 C9.70954174,32.2041962 10.3762084,35.5375295 10.6894577,38.1771269" id="Path-180" stroke="#E0E5ED" stroke-linecap="round" stroke-linejoin="round"></path>
                            <path d="M6.25294169,34.5383193 C7.07199335,35.0039558 7.70524345,35.3902391 8.15269201,35.6971691 C9.13786932,36.3729573 9.83795255,36.986674 10.2529417,37.5383193" id="Path-181" stroke="#E0E5ED" stroke-linecap="round" stroke-linejoin="round"></path>
                            <path d="M3.80549952,38.6597143 C6.44924346,38.8228429 8.78257679,38.5347901 10.8054995,37.7955558" id="Path-182" stroke="#E0E5ED" stroke-linecap="round" stroke-linejoin="round"></path>
                            <path d="M31.983401,19.9450823 C34.8522018,22.0677093 39.1855352,23.4010427 44.983401,23.9450823" id="Path-183" stroke="#E0E5ED" stroke-linecap="round" stroke-linejoin="round"></path>
                            <path d="M46.0782183,24.3615726 C47.9858432,24.4784057 49.4135092,24.5510095 50.3612163,24.579384 C55.6733104,24.738429 60.936631,25.0415233 66.0782183,24.3615726" id="Path-184" stroke="#E0E5ED" stroke-linecap="round" stroke-linejoin="round"></path>
                            <path d="M33.9001378,9.63852093 C37.8425261,16.9841039 41.5091928,21.6507706 44.9001378,23.6385209" id="Path-185" stroke="#E0E5ED" stroke-linecap="round" stroke-linejoin="round"></path>
                            <path d="M42.4790082,4.63174107 C42.6053534,13.9903551 43.6053534,20.3236885 45.4790082,23.6317411" id="Path-186" stroke="#E0E5ED" stroke-linecap="round" stroke-linejoin="round"></path>
                            <path d="M53.4627759,3.47730057 C52.1670696,6.42274925 51.2970644,8.39277957 50.8527601,9.38739154 C47.5801143,16.713481 45.7834529,21.4101174 45.4627759,23.4773006" id="Path-187" stroke="#E0E5ED" stroke-linecap="round" stroke-linejoin="round"></path>
                            <circle id="Oval-2" stroke="#E0E5ED" stroke-linecap="round" stroke-linejoin="round" cx="55.2088398" cy="2.03253104" r="2"></circle>
                            <circle id="Oval-2" stroke="#E0E5ED" stroke-linecap="round" stroke-linejoin="round" cx="61.970783" cy="9.79630099" r="2"></circle>
                            <circle id="Oval-2" stroke="#E0E5ED" stroke-linecap="round" stroke-linejoin="round" cx="62.2164264" cy="30.1908998" r="2"></circle>
                            <circle id="Oval-2" stroke="#E0E5ED" stroke-linecap="round" stroke-linejoin="round" cx="50.2400381" cy="29.1583676" r="1.5"></circle>
                            <circle id="Oval-2" stroke="#E0E5ED" stroke-linecap="round" stroke-linejoin="round" cx="67.6387832" cy="24.4378096" r="1.5"></circle>
                            <circle id="Oval-2" stroke="#E0E5ED" stroke-linecap="round" stroke-linejoin="round" cx="62.0628993" cy="17.4442755" r="1.5"></circle>
                            <circle id="Oval-2" stroke="#E0E5ED" stroke-linecap="round" stroke-linejoin="round" cx="53.19816" cy="14.2168311" r="1.5"></circle>
                            <circle id="Oval-2" stroke="#E0E5ED" stroke-linecap="round" stroke-linejoin="round" cx="56.6335162" cy="6.3302394" r="1.5"></circle>
                            <circle id="Oval-2" stroke="#E0E5ED" stroke-linecap="round" stroke-linejoin="round" cx="47.2064527" cy="5.26700181" r="1.5"></circle>
                            <circle id="Oval-2" stroke="#E0E5ED" stroke-linecap="round" stroke-linejoin="round" cx="40.2129187" cy="10.8428857" r="1.5"></circle>
                            <circle id="Oval-2" stroke="#E0E5ED" stroke-linecap="round" stroke-linejoin="round" cx="30.223531" cy="11.943855" r="1.5"></circle>
                            <circle id="Oval-2" stroke="#E0E5ED" stroke-linecap="round" stroke-linejoin="round" cx="35.2985015" cy="26.2002457" r="1.5"></circle>
                            <circle id="Oval-2" stroke="#E0E5ED" stroke-linecap="round" stroke-linejoin="round" cx="43.2631569" cy="3.54932373" r="2"></circle>
                            <circle id="Oval-2" stroke="#E0E5ED" stroke-linecap="round" stroke-linejoin="round" cx="31.0858832" cy="18.4057703" r="2"></circle>
                            <path d="M60.4477034,11.8482593 C57.0302557,15.1811498 54.5807987,17.4860578 53.0993321,18.7629836 C49.9200582,21.5033064 47.3695153,23.1983983 45.4477034,23.8482593" id="Path-188" stroke="#E0E5ED" stroke-linecap="round" stroke-linejoin="round"></path>
                            <path d="M10.4613071,91.1500641 C12.6448943,80.6698337 17.5008043,73.1107339 25.0290374,68.4727646 C32.5572705,63.8347953 27.7013604,71.3938952 10.4613071,91.1500641 Z" id="Path-10" fill="#E0E5ED" transform="translate(19.461307, 79.150064) scale(-1, 1) translate(-19.461307, -79.150064) "></path>
                            <path d="M10.3187395,158.480361 C13.7154305,142.760016 21.2690685,131.421366 32.9796532,124.464412 C44.690238,117.507458 37.1366001,128.846108 10.3187395,158.480361 Z" id="Path-10" fill="#E0E5ED" transform="translate(24.318739, 140.480361) scale(-1, 1) translate(-24.318739, -140.480361) "></path>
                            <path d="M27.1897657,140.710165 C30.4651464,125.863171 37.7490115,115.154447 49.0413611,108.58399 C60.3337107,102.013534 53.0498456,112.722258 27.1897657,140.710165 Z" id="Path-10" fill="#E0E5ED"></path>
                        </g>
                        <path d="M96.9868577,182.22228 L0.0582308285,182.22228 C-0.292000361,180.047241 0.937626008,177.872202 3.74710993,175.697163 C7.96133582,172.434604 9.54167053,175.697163 12.1755617,173.087116 C14.8094529,170.477069 16.3897876,168.519534 19.0236788,169.824557 C21.65757,171.129581 21.65757,170.477069 24.2914611,164.604463 C26.9253523,158.731858 30.6128,157.426834 35.8805823,156.121811 C41.1483647,154.816787 46.883263,158.079346 48.4934289,159.38437 C50.1035947,160.689393 53.7910424,163.951952 55.8981553,159.38437 C58.0052683,154.816787 58.0052683,148.29167 62.2194942,148.944182 C66.43372,149.596694 69.5943895,154.816787 70.1211677,154.164276 C70.6479459,153.511764 69.1602898,141.600906 81.1835107,134.588924 C93.2067315,127.576941 103.766428,145.870652 105.801651,148.80367 C107.836874,151.736688 112.839253,142.198153 116.885546,148.80367 C118.195493,150.94214 119.847293,158.323431 119.972753,164.604463 C120.031876,167.583371 109.784996,171.83446 108.018264,174.430342 C106.163447,177.155648 102.486311,179.75296 96.9868577,182.22228 Z" id="Path-39" fill="#F4F6F9"></path>
                        <path d="M197.972753,182.22228 L117.922885,182.22228 C117.693614,180.798439 118.498562,179.374597 120.337729,177.950756 C123.096479,175.814994 124.13101,177.950756 125.855229,176.242146 C127.579447,174.533537 128.613979,173.252079 130.338197,174.106384 C132.062416,174.960689 132.062416,174.533537 133.786635,170.689165 C135.510854,166.844793 137.92476,165.990488 141.373198,165.136184 C144.821635,164.281879 148.57586,166.417641 149.629919,167.271946 C150.683979,168.12625 153.097885,170.262013 154.47726,167.271946 C155.856635,164.281879 155.856635,160.010355 158.615385,160.437507 C161.374135,160.864659 163.443198,164.281879 163.788042,163.854726 C164.132885,163.427574 163.159024,155.630393 171.02976,151.040154 C178.900497,146.449914 185.813169,158.425489 187.145483,160.345524 C188.477797,162.26556 191.752494,156.021368 194.401311,160.345524 C195.258838,161.745426 196.340153,166.577425 196.422114,170.689165 C196.460986,172.639241 189.753092,175.422123 188.59654,177.12146 C187.382325,178.905521 190.507729,180.605794 197.972753,182.22228 Z" id="Path-39" fill="#F4F6F9" transform="translate(157.928759, 166.111140) scale(-1, 1) translate(-157.928759, -166.111140) "></path>
                        <path d="M168.972753,182.22228 L88.9228852,182.22228 C88.693614,180.454756 89.4985618,178.687232 91.3377285,176.919708 C94.0964785,174.268422 95.1310098,176.919708 96.8552286,174.798679 C98.5794474,172.67765 99.6139786,171.086879 101.338197,172.147393 C103.062416,173.207907 103.062416,172.67765 104.786635,167.905335 C106.510854,163.13302 108.92476,162.072506 112.373198,161.011991 C115.821635,159.951477 119.57586,162.602763 120.629919,163.663278 C121.683979,164.723792 124.097885,167.375078 125.47726,163.663278 C126.856635,159.951477 126.856635,154.648905 129.615385,155.179162 C132.374135,155.709419 134.443198,159.951477 134.788042,159.42122 C135.132885,158.890963 134.159024,149.211721 142.02976,143.513503 C149.900497,137.815285 156.813169,152.681489 158.145483,155.064977 C159.477797,157.448465 162.752494,149.697068 165.401311,155.064977 C166.258838,156.802783 167.340153,162.801116 167.422114,167.905335 C167.460986,170.326115 160.753092,173.780721 159.59654,175.890238 C158.382325,178.104931 161.507729,180.215612 168.972753,182.22228 Z" id="Path-39" fill="#F4F6F9" transform="translate(128.928759, 162.222280) scale(-1, 1) translate(-128.928759, -162.222280) "></path>
                        <g id="Group-18" transform="translate(190.000000, 133.000000)">
                            <g id="Group-8" transform="translate(16.000000, 13.000000)">
                                <mask id="mask-29" fill="white">
                                    <use xlink:href="#path-28"></use>
                                </mask>
                                <use id="Path-18" fill="#F4F6F9" xlink:href="#path-28"></use>
                                <path d="M34,1 C26.6666667,7 20.6666667,14 16,22 C11.3333333,30 8.33333333,32.3333333 7,29" id="Path-19" stroke="#FFFFFF" stroke-linecap="round" stroke-linejoin="round" mask="url(#mask-29)"></path>
                                <path d="M19,0 C18.3333333,7.33333333 18.6666667,12.3333333 20,15" id="Path-20" stroke="#FFFFFF" stroke-linecap="round" stroke-linejoin="round" mask="url(#mask-29)"></path>
                                <path d="M15,1 C14.3333333,9.66666667 15.3333333,15.3333333 18,18" id="Path-21" stroke="#FFFFFF" stroke-linecap="round" stroke-linejoin="round" mask="url(#mask-29)"></path>
                                <path d="M26,9 C28.6666667,9.66666667 31.3333333,9.33333333 34,8" id="Path-22" stroke="#FFFFFF" stroke-linecap="round" stroke-linejoin="round" mask="url(#mask-29)"></path>
                                <path d="M14,25 C19.3333333,27 24.6666667,26.6666667 30,24" id="Path-23" stroke="#FFFFFF" stroke-linecap="round" stroke-linejoin="round" mask="url(#mask-29)"></path>
                            </g>
                            <g id="Group-7">
                                <mask id="mask-31" fill="white">
                                    <use xlink:href="#path-30"></use>
                                </mask>
                                <use id="Path-5" fill="#E0E5ED" xlink:href="#path-30"></use>
                                <path d="M22.4861656,-2 C23.8563906,2 22.4861656,7 18.3754907,13 C12.2094783,22 9.12647207,26 12.2094783,32 C15.2924845,38 18.3754907,41 16.3201532,51" id="Path-6" stroke="#FFFFFF" stroke-linecap="round" stroke-linejoin="round" mask="url(#mask-31)"></path>
                                <path d="M19,-1 C19,-1 22.6836819,4 20.0524691,10" id="Path-7" stroke="#FFFFFF" stroke-linecap="round" stroke-linejoin="round" mask="url(#mask-31)"></path>
                                <path d="M21.0379837,9 C20.4959822,9 25.915997,7 27,3" id="Path-8" stroke="#FFFFFF" stroke-linecap="round" stroke-linejoin="round" mask="url(#mask-31)"></path>
                                <path d="M15,3 C15.6666667,9 16.3333333,12.6666667 17,14" id="Path-9" stroke="#FFFFFF" stroke-linecap="round" stroke-linejoin="round" mask="url(#mask-31)"></path>
                                <path d="M15,18 C13.4294198,12.6891621 12.7838604,8.92239022 13.0633219,6.69968434 C13.0930287,6.46340967 13.1280829,6.23018156 13.1684845,6" id="Path-13" stroke="#FFFFFF" stroke-linecap="round" stroke-linejoin="round" mask="url(#mask-31)"></path>
                                <path d="M13,21 C18.3333333,20.3333333 22.3333333,18.3333333 25,15" id="Path-14" stroke="#FFFFFF" stroke-linecap="round" stroke-linejoin="round" mask="url(#mask-31)"></path>
                                <path d="M5,13 C6.09090909,21 8.09090909,25.6666667 11,27" id="Path-15" stroke="#FFFFFF" stroke-linecap="round" stroke-linejoin="round" mask="url(#mask-31)"></path>
                                <path d="M14,35 C20.6666667,33.6666667 25,31 27,27" id="Path-16" stroke="#FFFFFF" stroke-linecap="round" stroke-linejoin="round" mask="url(#mask-31)"></path>
                                <path d="M0,29 C4.66666667,37.6666667 10,42.3333333 16,43" id="Path-17" stroke="#FFFFFF" stroke-linecap="round" stroke-linejoin="round" mask="url(#mask-31)"></path>
                            </g>
                        </g>
                        <g id="Group-19" transform="translate(13.000000, 150.000000)">
                            <path d="M22,32 C20.1670559,20.0340357 15.1670559,11.0340357 7,5" id="Path-216" stroke="#E0E5ED" stroke-linecap="round" stroke-linejoin="round"></path>
                            <path d="M23,27.7853348 C23.6722788,25.8109925 24.2945722,24.6458542 24.8668801,24.2899201 C25.725342,23.7560189 27.1131762,23.9643503 27.6796121,24.8749547 C28.246048,25.7855591 28.1059738,26.807622 26.8996767,27.5578515 C26.0954787,28.0580045 24.7955864,28.1338323 23,27.7853348 Z" id="Path-217" fill="#E0E5ED"></path>
                            <path d="M21,28.7815486 C19.8555002,27.1015521 18.8527333,26.1858485 17.9916994,26.0344377 C16.7001485,25.8073215 15.2365215,26.7410893 15.0311157,27.7319345 C14.8257099,28.7227796 15.6480648,29.6886582 17.1783803,29.9577605 C18.1985906,30.1371621 19.4724639,29.7450914 21,28.7815486 Z" id="Path-218" fill="#E0E5ED"></path>
                            <path d="M21,22.8634904 C21.8456311,20.8939516 22.582933,19.7244052 23.2119058,19.3548511 C24.1553649,18.8005199 25.5418931,18.8723825 26.3238597,19.7354468 C27.1058263,20.598511 27.4569912,21.5550917 25.9876136,22.4184272 C25.0080286,22.9939843 23.3454907,23.1423387 21,22.8634904 Z" id="Path-219" fill="#E0E5ED"></path>
                            <path d="M19,23.6658775 C17.3927081,22.0242403 16.0988764,21.143003 15.1185048,21.0221656 C13.6479474,20.8409094 12.1700126,21.8013533 12.0177867,22.8052723 C11.8655607,23.8091913 12.6896785,24.7454632 14.5197317,24.9710296 C15.7397671,25.1214073 17.2331899,24.6863566 19,23.6658775 Z" id="Path-220" fill="#E0E5ED"></path>
                            <path d="M19,16.906315 C19.5212672,14.9289673 20.0708374,13.7415836 20.6487106,13.344164 C21.5155204,12.7480345 22.9406329,12.9506576 23.5692778,13.763894 C24.1979227,14.5771304 24.2412358,15.5330681 23.0004185,16.3864131 C22.173207,16.9553097 20.8397341,17.1286103 19,16.906315 Z" id="Path-221" fill="#E0E5ED"></path>
                            <path d="M14.1019305,10 C13.8718731,8.50401367 14.0312458,7.44349173 14.5800486,6.81843417 C15.4032528,5.88084784 16.7723587,5.82957922 17.3862279,6.2593576 C18.0000971,6.68913598 18.3865751,7.64373639 17.3862279,8.78307935 C16.7193298,9.54264132 15.624564,9.94828154 14.1019305,10 Z" id="Path-222" fill="#E0E5ED"></path>
                            <path d="M17,13 C17.1500157,11.3114178 17.4688164,10.2026935 17.956402,9.6738272 C18.6877804,8.88052775 19.7975478,8.81652716 20.3829126,9.33067836 C20.9682774,9.84482955 21.4135199,10.6872742 20.3829126,11.8051362 C19.6958411,12.5503776 18.5682036,12.9486655 17,13 Z" id="Path-223" fill="#E0E5ED"></path>
                            <path d="M11.2398807,7 C10.9200398,5.63289558 10.9200398,4.63003083 11.2398807,3.99140576 C11.719642,3.03346814 12.5699934,2.79959785 13.1623789,3.16135535 C13.7547644,3.52311285 14.3073909,4.41376274 13.8017724,5.55589976 C13.4646933,6.31732444 12.6851123,6.79869118 11.4630293,7" id="Path-224" fill="#E0E5ED"></path>
                            <path d="M7.25010723,4 C6.91663092,2.69397727 6.91663092,1.70888937 7.25010723,1.04473632 C7.75032169,0.0485067452 8.6381596,-0.185303911 9.19179935,0.132916455 C9.7454391,0.451136821 10.3542729,1.27353425 9.74820199,2.48058811 C9.3441547,3.28529069 8.51145644,3.79176132 7.25010723,4 Z" id="Path-225" fill="#E0E5ED"></path>
                            <path d="M17,18.668441 C15.5630652,17.556147 14.48246,17 13.7581845,17 C12.6717712,17 11.9395677,17.9522841 12.00393,18.668441 C12.0682924,19.3845978 12.647368,20 14.0278001,20 C14.9480881,20 15.9388214,19.556147 17,18.668441 Z" id="Path-226" fill="#E0E5ED"></path>
                            <path d="M14,14.6329919 C12.8883011,13.5443306 11.9416048,13 11.1599114,13 C9.98737116,13 9,13.9209939 9,14.6329919 C9,15.34499 9.81744477,16 11.1599114,16 C12.0548891,16 13.0015853,15.5443306 14,14.6329919 Z" id="Path-227" fill="#E0E5ED"></path>
                            <path d="M8.14074462,9.13786527 C7.12379439,9.56474576 6.802476,10.6465326 7.11421685,11.2369972 C7.4259577,11.8274618 8.4249235,12.2739228 9.54763847,11.8026459 C10.2961151,11.4884614 10.7802356,10.756206 11,9.60587997 C9.77179656,9.00928317 8.81871144,8.85327827 8.14074462,9.13786527 Z" id="Path-228" fill="#E0E5ED"></path>
                            <path d="M7,7.27375372 C5.62356621,6.90874876 4.59972695,6.90874876 3.9284822,7.27375372 C2.92161508,7.82126115 2.84925758,8.86294909 3.16885952,9.35702551 C3.48846145,9.85110193 4.26911303,10.3406259 5.48474448,9.67959802 C6.29516546,9.23891275 6.80025063,8.43696465 7,7.27375372 Z" id="Path-229" fill="#E0E5ED"></path>
                            <path d="M4.86173085,4 C4.86173085,4 3.13350886,2.64906663 3.01448537,1.79249569 C2.89546188,0.935924745 3.52626394,0.062113238 4.30645276,0.00385533286 C5.08664158,-0.0544025722 5.84736288,0.55127985 5.98897122,1.57038623 C6.13057957,2.58949262 4.86173085,4 4.86173085,4 Z" id="Path-230" fill="#E0E5ED"></path>
                            <path d="M4,4.39776505 C2.90956256,3.42096079 2.05817558,2.95612377 1.44583905,3.00325401 C0.527334257,3.07394936 -0.0638366259,3.99446495 0.00550955161,4.70521246 C0.0748557291,5.41595996 0.618824022,6.07853575 1.73748728,5.99243462 C2.48326278,5.93503388 3.23743369,5.40347735 4,4.39776505 Z" id="Path-231" fill="#E0E5ED"></path>
                        </g>
                    </g>
                    <g id="Group-36" transform="translate(58.000000, 154.000000) scale(-1, 1) translate(-58.000000, -154.000000) translate(33.000000, 125.000000)">
                        <mask id="mask-33" fill="white">
                            <use xlink:href="#path-32"></use>
                        </mask>
                        <use id="Path-90" fill="#E0E5ED" xlink:href="#path-32"></use>
                        <path d="M53,1 C35.8619686,3.15411291 23.1953019,21.4874462 15,56" id="Path-91" stroke="#FFFFFF" stroke-linecap="round" stroke-linejoin="round" mask="url(#mask-33)"></path>
                        <g id="Group-8" mask="url(#mask-33)" stroke="#FFFFFF" stroke-linecap="round" stroke-linejoin="round">
                            <g transform="translate(26.716087, 26.879129) rotate(19.000000) translate(-26.716087, -26.879129) translate(6.216087, 2.379129)">
                                <path d="M12.8592095,0.632487898 C16.1928993,6.05757575 19.0082925,9.39121671 21.3053891,10.6334108" id="Path-54" transform="translate(17.082299, 5.632949) rotate(6.000000) translate(-17.082299, -5.632949) "></path>
                                <path d="M12.0005376,1.19421166 C13.5399939,5.57057722 15.1979233,8.80009194 16.974326,10.8827558 C18.1733641,12.2885144 19.1068864,13.6018068 20.0425941,14.2762898" id="Path-55"></path>
                                <path d="M22.6878666,11.1858709 C22.6876227,11.8141729 24.4399048,19.2988884 29.4287979,22.9076716" id="Path-56" transform="translate(26.058332, 17.046771) scale(-1, 1) rotate(-49.000000) translate(-26.058332, -17.046771) "></path>
                                <path d="M3.3992632,13.957649 C7.36701866,19.7459424 11.3209865,23.3595071 15.2611668,24.7983432 C16.1980842,25.1404775 16.8874576,25.6432819 17.700603,25.7880003" id="Path-57"></path>
                                <path d="M17.8121936,30.1364285 C22.7006449,29.774135 29.1196277,28.2678373 37.2072016,23.6201765" id="Path-58"></path>
                                <path d="M17.556996,33.3999077 C26.2315967,31.9821646 32.8178676,29.4302271 37.3158087,25.7440951" id="Path-59"></path>
                                <path d="M3.65163357,30.7020544 C3.65163357,31.5429513 8.55834062,42.4740166 16.4110218,45.20598" id="Path-60" transform="translate(10.031328, 37.954017) rotate(-9.000000) translate(-10.031328, -37.954017) "></path>
                                <path d="M0,33.4438129 C3.50098619,41.8925209 8.51376188,46.7401402 15.0383271,47.9866709 C21.5628922,49.2332016 29.9970862,47.2941538 40.3409091,42.1695277" id="Path-61"></path>
                            </g>
                        </g>
                    </g>
                </g>
            </g>
        </g>
    </g>
</svg>
