<?xml version="1.0" encoding="UTF-8"?>
<svg width="442px" height="278px" viewBox="0 0 442 278" version="1.1" xmlns="http://www.w3.org/2000/svg" xmlns:xlink="http://www.w3.org/1999/xlink">
    <title>404</title>
    <g id="components" stroke="none" stroke-width="1" fill="none" fill-rule="evenodd">
        <g id="ui-/-layout-/-error-assets" transform="translate(-1024.000000, -538.000000)">
            <g id="404" transform="translate(1025.000000, 539.000000)">
                <g id="Plant4" transform="translate(138.000000, 147.000000)">
                    <path d="M13.2946661,36.070344 C13.2946661,34.8252492 13.9762565,33.1521531 15.3394373,31.0510556 C17.3842084,27.8994095 20.7921603,22.9968488 21.4737507,21.8295724 C22.155341,20.6622961 23.2458856,17.8608328 23.1095676,15.5262801 C22.9732495,13.1917274 22.2916591,12.2579063 18.8837072,15.7597354 C17.4955556,17.1861257 15.8769833,20.858404 14.794165,26.148495 C14.5314019,27.4322193 13.9926772,29.4070161 13.7036203,31.8681491 C13.5592571,33.097309 13.4229391,34.4980406 13.2946661,36.070344 Z" id="Leaf51" fill="#E0E5ED" fill-rule="nonzero" transform="translate(18.207945, 24.758455) rotate(4.000000) translate(-18.207945, -24.758455) "></path>
                    <path d="M22.3717799,13.7402981 C21.6765117,14.5957604 20.4655299,17.0856797 18.7388342,21.2100562 C17.5723587,23.9962937 17.2299661,26.4753559 16.5611854,29.2615935 C16.3470563,30.1536861 15.774305,31.3724802 14.8429313,32.917976" id="Leaf50" stroke="#FFFFFF" stroke-width="0.5" stroke-linecap="round" stroke-linejoin="round" transform="translate(18.607356, 23.329137) rotate(4.000000) translate(-18.607356, -23.329137) "></path>
                    <path d="M13.1685109,29.8981141 C11.7164406,24.0142431 10.3551247,19.833598 9.08456311,17.3561786 C7.1787208,13.6400496 2.14185182,7.36908186 2.14185182,12.4787593 C2.14185182,15.8852109 3.18552738,19.9110173 5.27287848,24.5561786 L12.487853,36.517469 C13.3953969,38.8400496 13.8491689,39.8077915 13.8491689,39.4206948 C13.8491689,39.033598 13.6222829,35.8594044 13.1685109,29.8981141 Z" id="Leaf49" fill="#F4F6F9" fill-rule="nonzero" transform="translate(7.995510, 25.029090) rotate(6.000000) translate(-7.995510, -25.029090) "></path>
                    <path d="M2.69694266,10.8785689 C4.0193512,13.0741334 6.12300087,17.6474953 9.00789168,24.5986546 C9.51201772,25.8133489 9.92861045,27.195413 10.335007,28.4631031 C11.5547454,32.267885 12.6551983,37.5603807 13.6363659,44.3405901" id="Leaf48" stroke="#FFFFFF" stroke-width="0.5" stroke-linecap="round" stroke-linejoin="round" transform="translate(8.166654, 27.609580) rotate(6.000000) translate(-8.166654, -27.609580) "></path>
                    <path d="M11.9380538,42.958431 C11.9380538,42.7252981 10.8230215,34.0993799 9.70798927,31.1852183 C8.59295702,28.2710568 6.50227156,23.9580977 4.69034415,22.4427337 C2.87841675,20.9273697 -0.606059021,19.6451386 0.0908361337,23.8415312 C0.555432904,26.6391263 2.08860224,29.8252763 4.69034415,33.3999811 C9.42923121,40.0831249 11.8451344,43.5801188 11.9380538,43.8909627 C12.0774328,44.3572286 11.9380538,43.1915639 11.9380538,42.958431 Z" id="Leaf47" fill="#E0E5ED" fill-rule="nonzero"></path>
                    <path d="M1,21 C1.81858448,21.8357155 2.55991066,22.6559794 3.22397854,23.4607916 C7.88653113,29.1115379 10.8807311,35.9033572 13,44" id="Leaf46" stroke="#FFFFFF" stroke-width="0.5" stroke-linecap="round" stroke-linejoin="round"></path>
                    <path d="M12.6025721,40 C11.7379132,33.7648168 11.1134373,29.595038 10.7291444,27.4906637 C10.1527051,24.3341022 9.57626586,16.5011533 10.4409248,12.0585853 C11.3055837,7.61601727 11.7379132,5.51164294 12.7466819,3.17344925 C13.7554507,0.835255548 16.3494274,-2.55512532 17.502306,3.05653956 C18.6551846,8.66820444 17.502306,15.2151468 17.0699765,17.3195211 C16.8924865,18.1834583 15.9966615,21.4890847 14.9083292,27.023025 C14.4556819,29.3246413 13.6870962,33.6502996 12.6025721,40 Z" id="Leaf43" fill="#E0E5ED" fill-rule="nonzero"></path>
                    <path d="M15,0 C13.6666667,5.5933 13,11.6590694 13,18.197308 C13,19.9588566 13.007997,21.8701305 13.0239911,23.9311295 C13.0529046,27.6569248 13.155077,34.3465483 13.3305085,44" id="Leaf42" stroke="#FFFFFF" stroke-width="0.5" stroke-linecap="round" stroke-linejoin="round"></path>
                </g>
                <path d="M135.5,242 L135.5,211.2 L152.9,211.2 L152.9,189.6 L135.5,189.6 L135.5,153.2 L110.3,153.2 L110.3,189.6 L69.5,189.6 L113.3,100.4 L85.7,100.4 L40.3,191.8 L40.3,211.2 L110.5,211.2 L110.5,242 L135.5,242 Z M219.3,245.8 C237.033333,245.8 250.466667,239.433333 259.6,226.7 C268.733333,213.966667 273.3,195.466667 273.3,171.2 C273.3,146.933333 268.733333,128.433333 259.6,115.7 C250.466667,102.966667 237.033333,96.6 219.3,96.6 C201.7,96.6 188.366667,102.966667 179.3,115.7 C170.233333,128.433333 165.7,146.933333 165.7,171.2 C165.7,195.466667 170.233333,213.966667 179.3,226.7 C188.366667,239.433333 201.7,245.8 219.3,245.8 Z M219.5,223.6 C209.233333,223.6 202.033333,219.433333 197.9,211.1 C193.766667,202.766667 191.7,189.466667 191.7,171.2 C191.7,153.2 193.8,139.933333 198,131.4 C202.2,122.866667 209.366667,118.6 219.5,118.6 C229.633333,118.6 236.8,122.866667 241,131.4 C245.2,139.933333 247.3,153.2 247.3,171.2 C247.3,189.466667 245.233333,202.766667 241.1,211.1 C236.966667,219.433333 229.766667,223.6 219.5,223.6 Z M379.5,242 L379.5,211.2 L396.9,211.2 L396.9,189.6 L379.5,189.6 L379.5,153.2 L354.3,153.2 L354.3,189.6 L313.5,189.6 L357.3,100.4 L329.7,100.4 L284.3,191.8 L284.3,211.2 L354.5,211.2 L354.5,242 L379.5,242 Z" fill="#E0E5ED" fill-rule="nonzero"></path>
                <g id="Plant-Copy" transform="translate(322.000000, 0.000000)">
                    <path d="M33.3916016,17.6274414 C25.3911117,38.2520969 20.884113,54.2769993 19.8706055,65.7021484 C18.8570979,77.1272976 20.5613623,92.6972846 24.9833984,112.412109" id="leaf57" stroke="#E0E5ED" stroke-linecap="round" stroke-linejoin="round"></path>
                    <path d="M19.8310547,70.6845703 C26.2828776,63.7591146 31.9671224,59.1681315 36.8837891,56.9116211" id="leaf56" stroke="#E0E5ED" stroke-linecap="round" stroke-linejoin="round"></path>
                    <polyline id="leaf55" stroke="#E0E5ED" stroke-linecap="round" stroke-linejoin="round" points="39.0654297 48.998291 36.8554688 56.9716797 34.9648438 49.9196777"></polyline>
                    <line x1="36.9729004" y1="57.026123" x2="43.1884766" y2="51.7492676" id="leaf54" stroke="#E0E5ED" stroke-linecap="round" stroke-linejoin="round"></line>
                    <line x1="36.9975586" y1="56.949707" x2="43.7753906" y2="55.8581543" id="leaf53" stroke="#E0E5ED" stroke-linecap="round" stroke-linejoin="round"></line>
                    <line x1="37.065918" y1="57.0720215" x2="42.9750977" y2="61.1611328" id="leaf52" stroke="#E0E5ED" stroke-linecap="round" stroke-linejoin="round"></line>
                    <circle id="leaf51" stroke="#E0E5ED" stroke-linecap="round" stroke-linejoin="round" cx="34.5" cy="48.5" r="1.5"></circle>
                    <circle id="leaf50" stroke="#E0E5ED" stroke-linecap="round" stroke-linejoin="round" cx="39.5" cy="47.5" r="1.5"></circle>
                    <circle id="leaf49" stroke="#E0E5ED" stroke-linecap="round" stroke-linejoin="round" cx="21.5" cy="26.5" r="1.5"></circle>
                    <circle id="leaf48" stroke="#E0E5ED" stroke-linecap="round" stroke-linejoin="round" cx="45.5" cy="55.5" r="1.5"></circle>
                    <circle id="leaf47" stroke="#E0E5ED" stroke-linecap="round" stroke-linejoin="round" cx="44.5" cy="61.5" r="1.5"></circle>
                    <circle id="leaf46" stroke="#E0E5ED" stroke-linecap="round" stroke-linejoin="round" cx="44" cy="51" r="1"></circle>
                    <path d="M7.03735352,27.6569824 C12.9414876,35.8278809 17.7680664,44.9608561 21.5170898,55.0559082" id="leaf45" stroke="#E0E5ED" stroke-linecap="round" stroke-linejoin="round"></path>
                    <path d="M7.48095703,40.5852051 C10.3540039,40.8877767 13.4635417,42.1202799 16.8095703,44.2827148" id="leaf44" stroke="#E0E5ED" stroke-linecap="round" stroke-linejoin="round"></path>
                    <polyline id="leaf43" stroke="#E0E5ED" stroke-linecap="round" stroke-linejoin="round" points="4.70727539 36.8586426 7.55200195 40.6245117 8.50488281 37.9223633"></polyline>
                    <circle id="leaf42" stroke="#E0E5ED" stroke-linecap="round" stroke-linejoin="round" cx="4" cy="36" r="1"></circle>
                    <circle id="leaf41" stroke="#E0E5ED" stroke-linecap="round" stroke-linejoin="round" cx="9" cy="37" r="1"></circle>
                    <circle id="leaf40" stroke="#E0E5ED" stroke-linecap="round" stroke-linejoin="round" cx="18" cy="24" r="1"></circle>
                    <circle id="leaf39" stroke="#E0E5ED" stroke-linecap="round" stroke-linejoin="round" cx="22" cy="32" r="1"></circle>
                    <circle id="leaf38" stroke="#E0E5ED" stroke-linecap="round" stroke-linejoin="round" cx="3" cy="41" r="1"></circle>
                    <circle id="leaf37" stroke="#E0E5ED" stroke-linecap="round" stroke-linejoin="round" cx="6" cy="45" r="1"></circle>
                    <circle id="leaf36" stroke="#E0E5ED" stroke-linecap="round" stroke-linejoin="round" cx="14" cy="27" r="1"></circle>
                    <circle id="leaf35" stroke="#E0E5ED" stroke-linecap="round" stroke-linejoin="round" cx="3" cy="25" r="1"></circle>
                    <circle id="leaf34" stroke="#E0E5ED" stroke-linecap="round" stroke-linejoin="round" cx="1" cy="29" r="1"></circle>
                    <polyline id="leaf33" stroke="#E0E5ED" stroke-linecap="round" stroke-linejoin="round" points="6.50390625 43.9702148 7.50878906 40.5871582 4.22290039 40.5871582"></polyline>
                    <path d="M14.6210938,39.7382812 C15.1178385,35.8162435 16.315918,32.5113932 18.215332,29.8237305" id="leaf32" stroke="#E0E5ED" stroke-linecap="round" stroke-linejoin="round"></path>
                    <polyline id="leaf31" stroke="#E0E5ED" stroke-linecap="round" stroke-linejoin="round" points="15.2106934 28.0473633 18.251709 29.9035645 17.7939453 25.4663086"></polyline>
                    <polyline id="leaf30" stroke="#E0E5ED" stroke-linecap="round" stroke-linejoin="round" points="20.3540039 27.3515625 18.1142578 29.7971191 20.9797363 31.4519043"></polyline>
                    <path d="M7.72436523,28.4892578 C9.03198242,25.746582 9.68579102,23.5822754 9.68579102,21.9963379" id="leaf29" stroke="#E0E5ED" stroke-linecap="round" stroke-linejoin="round"></path>
                    <circle id="leaf28" stroke="#E0E5ED" stroke-linecap="round" stroke-linejoin="round" cx="9.5" cy="20.5" r="1.5"></circle>
                    <circle id="leaf27" stroke="#E0E5ED" stroke-linecap="round" stroke-linejoin="round" cx="5.5" cy="19.5" r="1.5"></circle>
                    <path d="M6.03955078,20.9953613 C6.83935547,23.9058431 7.36206055,26.3149414 7.60766602,28.2226562" id="leaf26" stroke="#E0E5ED" stroke-linecap="round" stroke-linejoin="round"></path>
                    <path d="M4.08911133,25.5532227 C4.73434447,25.9398131 5.23320672,26.2605213 5.58569808,26.5153471 C6.36180182,27.0764142 6.91331391,27.5859469 7.24023438,28.0439453" id="leaf25" stroke="#E0E5ED" stroke-linecap="round" stroke-linejoin="round"></path>
                    <path d="M2.25048828,29.2165527 C4.21614583,29.3169759 5.95100911,29.1396484 7.45507812,28.6845703" id="leaf24" stroke="#E0E5ED" stroke-linecap="round" stroke-linejoin="round"></path>
                    <path d="M23.5739746,14.9592285 C25.6659342,16.7017415 28.8258464,17.7963053 33.0537109,18.2429199" id="leaf23" stroke="#E0E5ED" stroke-linecap="round" stroke-linejoin="round"></path>
                    <path d="M33.4570312,18.2441406 C34.8996726,18.3160639 35.979345,18.3607594 36.6960485,18.3782269 C40.7133197,18.4761362 44.6937058,18.6627234 48.5820312,18.2441406" id="leaf22" stroke="#E0E5ED" stroke-linecap="round" stroke-linejoin="round"></path>
                    <path d="M25.0400391,7.63867188 C27.940918,13.0555013 30.638916,16.4968262 33.1340332,17.9626465" id="leaf21" stroke="#E0E5ED" stroke-linecap="round" stroke-linejoin="round"></path>
                    <path d="M31.2121532,4.00048828 C31.2925602,10.8470052 31.9289551,15.480306 33.1213379,17.9003906" id="leaf20" stroke="#E0E5ED" stroke-linecap="round" stroke-linejoin="round"></path>
                    <path d="M39.7141113,2.79785156 C38.6836516,5.02362128 37.9917468,6.51230239 37.6383969,7.26389492 C35.0357006,12.7999575 33.6068372,16.3490368 33.3518066,17.9111328" id="leaf19" stroke="#E0E5ED" stroke-linecap="round" stroke-linejoin="round"></path>
                    <circle id="leaf18" stroke="#E0E5ED" stroke-linecap="round" stroke-linejoin="round" cx="40.5" cy="1.5" r="1.5"></circle>
                    <circle id="leaf17" stroke="#E0E5ED" stroke-linecap="round" stroke-linejoin="round" cx="45.5" cy="7.5" r="1.5"></circle>
                    <circle id="leaf16" stroke="#E0E5ED" stroke-linecap="round" stroke-linejoin="round" cx="45.5" cy="22.5" r="1.5"></circle>
                    <circle id="leaf15" stroke="#E0E5ED" stroke-linecap="round" stroke-linejoin="round" cx="37" cy="22" r="1"></circle>
                    <circle id="leaf14" stroke="#E0E5ED" stroke-linecap="round" stroke-linejoin="round" cx="50" cy="18" r="1"></circle>
                    <circle id="leaf13" stroke="#E0E5ED" stroke-linecap="round" stroke-linejoin="round" cx="46" cy="13" r="1"></circle>
                    <circle id="leaf12" stroke="#E0E5ED" stroke-linecap="round" stroke-linejoin="round" cx="39" cy="11" r="1"></circle>
                    <circle id="leaf11" stroke="#E0E5ED" stroke-linecap="round" stroke-linejoin="round" cx="42" cy="5" r="1"></circle>
                    <circle id="leaf10" stroke="#E0E5ED" stroke-linecap="round" stroke-linejoin="round" cx="35" cy="4" r="1"></circle>
                    <circle id="leaf9" stroke="#E0E5ED" stroke-linecap="round" stroke-linejoin="round" cx="29" cy="8" r="1"></circle>
                    <circle id="leaf8" stroke="#E0E5ED" stroke-linecap="round" stroke-linejoin="round" cx="22" cy="9" r="1"></circle>
                    <circle id="leaf7" stroke="#E0E5ED" stroke-linecap="round" stroke-linejoin="round" cx="26" cy="20" r="1"></circle>
                    <circle id="leaf6" stroke="#E0E5ED" stroke-linecap="round" stroke-linejoin="round" cx="31.5" cy="2.5" r="1.5"></circle>
                    <circle id="leaf5" stroke="#E0E5ED" stroke-linecap="round" stroke-linejoin="round" cx="22.5" cy="13.5" r="1.5"></circle>
                    <path d="M44.2817383,8.73608398 C41.7550297,11.3268177 39.9440102,13.1184767 38.8486798,14.111061 C36.4980663,16.241178 34.6123084,17.5588127 33.1914062,18.0639648" id="leaf4" stroke="#E0E5ED" stroke-linecap="round" stroke-linejoin="round"></path>
                    <path d="M7,87.1826949 C8.6755646,79.3715892 12.4017228,73.7376549 18.1784746,70.2808923 C23.9552264,66.8241297 20.2290682,72.4580639 7,87.1826949 Z" id="leaf3" fill="#E0E5ED" fill-rule="nonzero" transform="translate(13.906105, 78.238877) scale(-1, 1) translate(-13.906105, -78.238877) "></path>
                    <path d="M3,107.182695 C5.54624833,95.3126572 11.2086526,86.7511278 19.9872127,81.4981068 C28.7657728,76.2450858 23.1033686,84.8066152 3,107.182695 Z" id="leaf2" fill="#E0E5ED" fill-rule="nonzero" transform="translate(13.494766, 93.591347) scale(-1, 1) translate(-13.494766, -93.591347) "></path>
                    <path d="M22,99.1308351 C24.4262079,87.8203989 29.8216636,79.6624945 38.186367,74.6571221 C46.5510704,69.6517497 41.1556147,77.809654 22,99.1308351 Z" id="leaf1" fill="#E0E5ED" fill-rule="nonzero"></path>
                </g>
                <g id="Group-2" transform="translate(0.000000, 201.000000)">
                    <path d="M301.63071,76 L241.036403,76 C240.817458,74.7349017 241.586151,73.4698035 243.342482,72.2047052 C245.976978,70.3070578 246.964914,72.2047052 248.611474,70.6865873 C250.258034,69.1684694 251.24597,68.0298809 252.89253,68.7889399 C254.53909,69.5479988 254.53909,69.1684694 256.185651,65.752704 C257.832211,62.3369387 260.137395,61.5778797 263.430515,60.8188208 C266.723635,60.0597618 270.30877,61.9574092 271.315355,62.7164682 C272.32194,63.4755271 274.627124,65.3731745 275.944372,62.7164682 C277.26162,60.0597618 277.26162,56.264467 279.896116,56.6439965 C282.530612,57.023526 284.506484,60.0597618 284.835796,59.6802323 C285.165108,59.3007029 285.165108,52.4691722 291.751349,48.2943479 C296.142176,45.5111317 301.191627,47.7883086 306.899702,55.1258786 L301.63071,76 Z" id="Bush4" fill="#F4F6F9" fill-rule="nonzero" transform="translate(273.949851, 61.573136) scale(-1, 1) translate(-273.949851, -61.573136) "></path>
                    <path d="M252.761719,76 L94.0857511,76 C93.6077012,73.2377507 95.286086,70.4755015 99.1209055,67.7132522 C104.873135,63.5698783 107.030221,67.7132522 110.625364,64.3985531 C114.220507,61.083854 116.377593,58.5978297 119.972736,60.2551792 C123.567879,61.9125288 123.567879,61.083854 127.163022,53.625781 C130.758166,46.167708 135.791366,44.5103584 142.981653,42.8530089 C150.171939,41.1956593 157.999818,45.3390332 160.197622,46.9963828 C162.395426,48.6537323 167.428626,52.7971062 170.304741,46.9963828 C173.180856,41.1956593 173.180856,32.9089115 178.933085,33.7375863 C184.685314,34.5662611 188.999486,41.1956593 189.718514,40.3669845 C190.437543,39.5383098 190.437543,24.6221638 204.818116,15.5067412 C214.405164,9.42979283 225.43027,14.4018415 237.893433,30.4228872 L252.761719,76 Z" id="Bush3" fill="#F4F6F9" fill-rule="nonzero"></path>
                    <path d="M217,76 L15.104596,76 C14.4755001,72.6677628 16.6841923,69.3355256 21.7306727,66.0032884 C29.3003932,61.0049326 32.1390384,66.0032884 36.8701138,62.0046037 C41.6011891,58.0059191 44.4398343,55.0069056 49.1709097,57.0062479 C53.901985,59.0055903 53.901985,58.0059191 58.6330603,49.0088787 C63.3641357,40.0118382 69.9876412,38.0124959 79.4497918,36.0131536 C88.9119425,34.0138112 99.2131411,39.0121671 102.10537,41.0115094 C104.997599,43.0108517 111.621104,48.0092075 115.405964,41.0115094 C119.190825,34.0138112 119.190825,24.0170996 126.760545,25.0167708 C134.330266,26.016442 140.007556,34.0138112 140.953771,33.0141401 C141.899986,32.0144689 141.899986,14.020388 160.824288,3.02400526 C173.440489,-4.30691658 187.94912,1.69111038 204.350181,21.0180862 L217,76 Z" id="Bush2" fill="#F4F6F9" fill-rule="nonzero"></path>
                    <path d="M49.1999638,76 L2.30582673,76 C2.13638464,74.9477146 2.73127873,73.8954291 4.09050901,72.8431437 C6.12935442,71.2647156 6.89392145,72.8431437 8.16819983,71.5804012 C9.44247822,70.3176587 10.2070452,69.3706018 11.4813236,70.001973 C12.755602,70.6333443 12.755602,70.3176587 14.0298804,67.476488 C15.3041588,64.6353173 17.0881485,64.0039461 19.6367053,63.3725748 C22.1852621,62.7412036 24.9598098,64.3196317 25.7388092,64.951003 C26.5178086,65.5823742 28.3017983,67.1608024 29.321221,64.951003 C30.3406437,62.7412036 30.3406437,59.5843473 32.3794891,59.9000329 C34.4183345,60.2157185 35.9474686,62.7412036 36.2023243,62.4255179 C36.45718,62.1098323 36.45718,56.427491 41.5542935,52.954949 C44.9523692,50.6399211 48.8601562,52.5340349 53.2776546,58.6372904 L49.1999638,76 Z" id="Bush" fill="#F4F6F9" fill-rule="nonzero"></path>
                    <g id="Group-16" transform="translate(54.500000, 45.000000) scale(-1, 1) translate(-54.500000, -45.000000) translate(26.000000, 14.000000)">
                        <path d="M4.79825986,62 C1.59941995,55.8392193 0,51.593745 0,49.2635771 C0,45.7683252 0,43.1976677 2.39912993,42.1270132 C4.79825986,41.0563588 7.8918656,44.3776973 9.70454155,43.5400597 C11.5172175,42.702422 12.259432,40.6480699 10.9819868,33.6195226 C9.70454155,26.5909752 8.90727077,21.4353938 10.9819868,18.7241109 C13.0567028,16.0128281 15.8164862,14.9387769 16.7726536,17.4897333 C17.728821,20.0406898 21.1207064,25.1983093 23.2567509,18.7241109 C25.3927954,12.2499126 23.9801487,8.60588319 26.7294784,5.70302385 C29.4788081,2.8001645 33.932095,-0.627152466 33.932095,4.45370057 C33.932095,9.53455362 35.2966546,10.4163489 39.0648741,6.77367826 C42.8330936,3.13100758 46.7609066,1.15410127 50.6991733,0.172441601 C54.6374401,-0.809218065 60.9047968,2.41497348 53.7021801,9.47069479 C46.4995635,16.5264161 43.3202372,14.1989656 40.0405551,18.7241109 C36.7608731,23.2492563 42.0602148,20.9618873 43.3202372,20.9618873 C44.5802595,20.9618873 48.9596734,21.2505542 46.1399553,25.8898868 C43.3202372,30.5292194 38.7192043,30.1616349 36.687697,31.8905787 C34.6561897,33.6195226 32.4692704,34.802949 33.932095,36.1460224 C35.3949196,37.4890959 47.6195154,36.4034958 42.4867364,42.1270132 C37.3539573,47.8505307 33.5174367,44.5074968 30.9953013,47.262258 C28.4731659,50.0170193 33.7479957,52.0901936 36.687697,52.7277431 C39.6273983,53.3652927 43.3202372,58.5953679 33.932095,62 L21.5165541,62 L14.694453,62 L4.79825986,62 Z" id="leaf61" fill="#E0E5ED" fill-rule="nonzero"></path>
                        <path d="M54,1 C24.1083366,15.5833619 20.3600381,37.136806 14,61" id="leaf60" stroke="#FFFFFF" stroke-linecap="round" stroke-linejoin="round"></path>
                    </g>
                    <path d="M16.8457031,49.7660309 C16.8457031,54.1102692 10.8361816,50.0162301 10.8361816,53.2093903 C10.8361816,56.4025505 23.2878418,55.9862458 23.2878418,58.8570954 C23.2878418,61.727945 19.2873535,61.746988 19.2873535,64.0448395 C19.2873535,66.3426911 31.0063477,65.7208649 31.0063477,67.5267731 C31.0063477,69.3326813 24.4633789,70.6913239 24.4633789,72.8365876 C24.4633789,74.9818512 25.6569824,75.0965973 27.7016602,75.0392243 C29.0647786,75.0009756 37.1068522,75.0009756 51.8278809,75.0392243 C54.1968587,62.405598 53.6839193,55.8744294 50.2890625,55.4457184 C45.1967773,54.802652 43.6804199,61.0340973 40.5932617,59.2467438 C37.5061035,57.4593903 38.2866725,41.1070954 32.0622816,41.1070954 C25.8378906,41.1070954 34.6008301,46.3710114 28.604248,46.3710114 C22.607666,46.3710114 23.2878418,33.7096368 16.1616211,35.1078278 C9.03540039,36.5060188 22.1088867,40.0802399 16.1616211,41.1070954 C10.2143555,42.1339509 2.4158453e-13,33.1229645 2.4158453e-13,39.746988 C2.4158453e-13,46.3710114 16.8457031,45.4217926 16.8457031,49.7660309 Z" id="Path-4" stroke="#E0E5ED" fill="#E0E5ED"></path>
                    <path d="M45.9766797,74.8358473 C29.6282943,51.6119491 14.3027344,40 4.61852778e-13,40" id="Path-3" stroke="#FFFFFF"></path>
                </g>
                <path d="M441,277 L239.104596,277 C238.4755,273.667763 240.684192,270.335526 245.730673,267.003288 C253.300393,262.004933 256.139038,267.003288 260.870114,263.004604 C265.601189,259.005919 268.439834,256.006906 273.17091,258.006248 C277.901985,260.00559 277.901985,259.005919 282.63306,250.008879 C287.364136,241.011838 293.987641,239.012496 303.449792,237.013154 C312.911943,235.013811 323.213141,240.012167 326.10537,242.011509 C328.997599,244.010852 335.621104,249.009207 339.405964,242.011509 C343.190825,235.013811 343.190825,225.0171 350.760545,226.016771 C358.330266,227.016442 364.007556,235.013811 364.953771,234.01414 C365.899986,233.014469 365.899986,215.020388 384.824288,204.024005 C397.440489,196.693083 411.94912,202.69111 428.350181,222.018086 L441,277 Z" id="Bush2" fill="#F4F6F9" fill-rule="nonzero" transform="translate(340.000000, 239.000000) scale(-1, 1) translate(-340.000000, -239.000000) "></path>
                <g id="Plant3" transform="translate(308.000000, 218.000000)">
                    <path d="M3.78809989,52 C1.26269996,46.8328936 0,43.2721733 0,41.3178389 C0,38.3863373 0,36.2303019 1.89404994,35.3323337 C3.78809989,34.4343655 6.23042021,37.2200042 7.66148017,36.5174694 C9.09254013,35.8149346 9.67849893,34.0919296 8.66998955,28.1970189 C7.66148017,22.3021083 7.03205587,17.9780722 8.66998955,15.704093 C10.3079232,13.4301139 12.4866996,12.5292968 13.2415686,14.6688086 C13.9964376,16.8083204 16.6742419,21.1340658 18.3605928,15.704093 C20.0469437,10.2741202 19.2099517,6.170018 21.3804752,3.73536177 C23.5509986,1.30070555 26.1607886,-0.46953708 26.7884961,3.73536177 C27.4162035,7.94026062 27.86578,8.73629266 30.8406901,5.68114951 C33.8156002,2.62600636 36.9165052,0.967955902 40.0256631,0.14462844 C43.1348211,-0.678699022 48.0827343,2.02546162 42.396458,7.94316337 C36.7101817,13.8608651 34.2001872,11.9088098 31.6109646,15.704093 C29.0217419,19.4993762 33.2054328,17.5809378 34.2001872,17.5809378 C35.1949417,17.5809378 38.6523738,17.8230455 36.4262805,21.7140986 C34.2001872,25.6051517 30.5677928,25.2968551 28.9639713,26.746937 C27.3601498,28.1970189 25.6336345,29.1895701 26.7884961,30.3160188 C27.9433576,31.4424675 37.5943543,30.5319642 33.5421603,35.3323337 C29.4899663,40.1327031 26.4611343,37.3288683 24.4699747,39.6393132 C22.4788152,41.9497581 26.6431545,43.6885494 28.9639713,44.2232684 C31.2847881,44.7579874 34.2001872,49.1445021 26.7884961,52 L16.9867532,52 L11.600884,52 L3.78809989,52 Z" id="Leaf41" fill="#E0E5ED" fill-rule="nonzero"></path>
                    <path d="M44,2 C28.6659719,4.15411291 17.3326386,22.4874462 10,57" id="Leaf40" stroke="#FFFFFF" stroke-linecap="round" stroke-linejoin="round"></path>
                </g>
                <g id="Plant2" transform="translate(393.118257, 245.327774) scale(-1, 1) rotate(7.000000) translate(-393.118257, -245.327774) translate(357.618257, 221.827774)" stroke="#E0E5ED" stroke-linecap="round" stroke-linejoin="round">
                    <path d="M49.1694961,12.5610552 C48.0851165,15.5430034 48.3426749,17.9567719 49.9421715,19.8023608 C52.3414164,22.5707442 52.7734854,24.5196888 52.7734854,25.6869995 C52.7734854,26.8543101 50.8297239,28.9468472 54.4809078,30.7767393 C56.9150304,31.9966674 58.8022071,32.6066314 60.1424379,32.6066314 C61.9324205,30.0801113 62.8274118,28.2952092 62.8274118,27.2519253 C62.8274118,25.6869995 62.3368068,23.320874 60.8854795,22.5838433 C59.4341522,21.8468126 58.9567178,21.6932715 58.9567178,19.8023608 C58.9567178,17.9114502 59.7063446,15.1722496 56.239915,14.6154557 C52.7734854,14.0586617 53.157628,13.4013862 52.7734854,12.5610552 C52.3347092,9.59789895 51.1333794,9.59789895 49.1694961,12.5610552 Z" id="Leaf39" fill="#FFFFFF" fill-rule="nonzero"></path>
                    <path d="M34.1971988,14.0783879 C31.395166,12.4589543 29.2813408,11.2555155 27.8557232,10.4680715 C25.7172969,9.28690556 23.5186359,7.98293795 18.8491333,9.29974838 C14.1796306,10.6165588 15.1515574,9.67528953 11.9525534,9.67528953 C8.75354927,9.67528953 6.68666634,9.9106435 3.08267596,14.03157 C-0.521314423,18.1524964 3.23671849,19.4433483 5.61024135,19.8024474 C7.98376421,20.1615464 9.84894272,19.2096073 10.8247518,18.8682753 C11.8005608,18.5269433 14.3741356,18.2557404 15.7219751,18.6387566 C17.0698147,19.0217728 19.1910467,18.8325853 21.3213663,17.6573987 C23.4516858,16.482212 24.2484046,15.1552434 27.2650062,14.5301407 C29.276074,14.1134056 31.5868048,13.9628213 34.1971988,14.0783879 Z" id="Leaf38" fill="#FFFFFF" fill-rule="nonzero" transform="translate(17.893883, 14.315106) rotate(16.000000) translate(-17.893883, -14.315106) "></path>
                    <path d="M55.6698585,40.426297 C53.5095565,38.5842557 51.7348346,37.2761735 50.3456929,36.5020504 C48.2619803,35.3408658 47.6042731,34.2948927 43.0542443,35.5894271 C38.5042155,36.8839616 39.4459561,35.5894271 36.3288017,35.5894271 C33.2116473,35.5894271 29.8640378,35.7049746 26.3522591,39.756189 C22.8404804,43.8074033 25.5015329,45.7005005 27.8143268,46.0535248 C30.1271207,46.4065491 33.0763279,45.3810655 34.0271699,45.0455077 C34.9780119,44.7099498 36.7837015,45.0045286 38.0970553,45.3810655 C39.410409,45.7576024 40.756047,45.6635522 42.8318603,44.5082456 C44.9076735,43.3529391 46.8124486,41.7885245 49.7518674,41.1739964 C51.71148,40.764311 53.6841437,40.5150779 55.6698585,40.426297 Z" id="Leaf37" fill="#FFFFFF" fill-rule="nonzero"></path>
                    <path d="M44.8984741,19.8820923 C44.8163288,17.3719143 44.9038003,15.5283484 45.1608886,14.3513947 C45.5465209,12.5859641 45.4147371,10.380448 43.2961477,9.55477474 C41.1775583,8.72910147 40.9204152,6.92657303 40.6664019,6.48517434 C40.4123886,6.04377566 39.4268105,5.1478463 37.9053664,4.64374241 C36.3839224,4.13963851 35.7207204,3.03770122 35.2525584,2.24567866 C34.7843965,1.4536561 33.3789222,0 31.7252002,0 C30.0714782,0 29.8632597,-0.0635800755 29.543684,2.87371562 C29.2241083,5.81101131 29.5281994,9.146206 30.7559303,10.3193843 C31.9836612,11.4925626 33.530803,11.8983408 34.0750702,12.1911839 C34.6193373,12.4840271 35.8287831,13.0805473 35.8287831,14.8492609 C35.8287831,16.6179745 36.8513007,18.1306145 37.3783336,18.4557951 C37.9053664,18.7809758 39.6080132,19.5127554 41.0485749,19.5127554 C42.0089494,19.5127554 43.2922491,19.6358677 44.8984741,19.8820923 Z" id="Leaf36" fill="#FFFFFF" fill-rule="nonzero"></path>
                    <path d="M16.5993753,16.9343249 C15.4547523,20.4487639 15.7266196,23.2935625 17.4149771,25.4687209 C19.9475134,28.7314584 20.6705231,30.5595231 20.6705231,31.9352821 C20.6705231,33.3110411 19.7217826,36.3878568 21.9897399,38.0632241 C23.5017114,39.1801356 25.5657731,40.0122171 28.181925,40.5594684 C30.071351,37.5817839 31.016064,35.4781494 31.016064,34.2485647 C31.016064,32.4041878 30.4982032,29.6155399 28.9662466,28.7468967 C27.43429,27.8782534 26.9303315,27.6972941 26.9303315,25.4687209 C26.9303315,23.2401476 27.7216043,20.011804 24.0625952,19.3555826 C20.4035862,18.6993612 20.80907,17.9247151 20.4035862,16.9343249 C19.9404335,13.4420337 18.6723632,13.4420337 16.5993753,16.9343249 Z" id="Leaf35" fill="#FFFFFF" fill-rule="nonzero" transform="translate(23.460869, 27.437287) scale(1, -1) rotate(-63.000000) translate(-23.460869, -27.437287) "></path>
                    <path d="M57.2604259,24.6537945 C59.6889813,35.7254952 64.1955889,42.3528593 70.7802487,44.5358868" id="Leaf34"></path>
                    <path d="M69.984965,45.3311705 C59.7894971,40.2596157 52.7475138,36.0093044 48.8590151,32.5802367 C43.0262671,27.4366351 31.9148978,13.9571535 15.9056739,13.5198228" id="Leaf33"></path>
                    <path d="M69.984965,45.3311705 C69.984965,45.3311705 58.7888569,36.6714147 36.5830499,39.558" id="Leaf32"></path>
                    <path d="M54.0792911,35.7877662 C50.9636232,32.0458732 48.6621413,28.4057025 47.1748456,24.8672543 C45.6875498,21.328806 42.9522349,17.5463289 38.968901,13.5198228" id="Leaf31"></path>
                    <path d="M45.3311705,28.630213 C37.1383093,24.0255007 28.3901886,23.4199981 19.0868086,26.8137051" id="Leaf30"></path>
                </g>
                <path d="M307,277 C309.998302,274.8403 311.122665,276.674575 312.996604,274.946815 C314.870543,273.219055 315.994906,271.923236 317.868845,272.787115 C319.742784,273.650995 319.742784,273.219055 321.616723,269.331596 C323.490661,265.444137 326.114176,264.580257 329.862053,263.716377 C333.609931,262.852498 337.690148,265.012197 338.835736,265.876077 C339.981323,266.739957 342.604837,268.899656 344.103988,265.876077 C345.603139,262.852498 345.603139,258.533098 348.601441,258.965038 C351.599743,259.396978 353.84847,262.852498 354.223258,262.420558 C354.598046,261.988618 354.598046,254.213699 362.093801,249.46236 C367.090971,246.294801 372.837716,248.886441 379.334038,257.237279 L374.372664,277 L307,277 Z" id="Bush" fill="#F4F6F9" fill-rule="nonzero" transform="translate(343.167019, 262.577871) scale(-1, 1) translate(-343.167019, -262.577871) "></path>
            </g>
        </g>
    </g>
</svg>
