<svg
                width="27"
                height="22"
                viewBox="0 0 27 22"
                fill="none"
                xmlns="http://www.w3.org/2000/svg"
                id="laptop_icon"
            >
                <path
                    fill-rule="evenodd"
                    clip-rule="evenodd"
                    d="M3.67955 14.3881H23.3453C23.4878 14.3775 23.5985 14.2595 23.5999 14.1165V0.530788C23.5999 0.242235 23.3792 0.106445 23.0907 0.106445H3.93415C3.66258 0.106445 3.37402 0.242235 3.37402 0.530788V14.1097C3.37402 14.2455 3.54376 14.3813 3.67955 14.3813V14.3881ZM5.35315 2.37073C5.35672 2.23162 5.46865 2.1197 5.60776 2.11613H21.3695C21.5086 2.1197 21.6206 2.23162 21.6241 2.37073V12.1306C21.6206 12.2697 21.5086 12.3816 21.3695 12.3852H5.59758C5.45847 12.3816 5.34654 12.2697 5.34297 12.1306V2.37073H5.35315Z"
                    fill="#0070D2"
                ></path>
                <path
                    fill-rule="evenodd"
                    clip-rule="evenodd"
                    d="M26.1693 20.536L23.6572 15.4439C23.6137 15.3593 23.531 15.3021 23.4366 15.2911H3.56039C3.46597 15.3021 3.38323 15.3593 3.33973 15.4439L0.827624 20.536C0.738311 20.6997 0.739864 20.898 0.831733 21.0603C0.923602 21.2226 1.09277 21.326 1.27912 21.3337H25.7212C25.9049 21.3209 26.0696 21.2159 26.1587 21.0548C26.2479 20.8937 26.2493 20.6984 26.1625 20.536H26.1693ZM16.0734 20.2203H10.9473C10.896 20.2108 10.852 20.1778 10.8287 20.1311C10.8053 20.0844 10.8053 20.0294 10.8285 19.9826L11.5584 18.5908C11.6019 18.5063 11.6846 18.449 11.779 18.438H15.2247C15.3125 18.442 15.3937 18.4857 15.4454 18.5568L16.1752 19.9826C16.2262 20.0675 16.1752 20.2203 16.0734 20.2203Z"
                    fill="#0070D2"
                ></path>
            </svg>