<svg width="20" height="20" viewBox="0 0 20 20" fill="none" xmlns="http://www.w3.org/2000/svg">
<g clip-path="url(#clip0)">
<path fill-rule="evenodd" clip-rule="evenodd" d="M7.31527 5.36963H1.99507C0.893202 5.36963 0 6.26283 0 7.3647C0 8.46657 0.893202 9.35978 1.99507 9.35978H7.31527C8.41714 9.35978 9.31034 8.46657 9.31034 7.3647C9.31034 6.26283 8.41714 5.36963 7.31527 5.36963Z" fill="#36C5F0"/>
<path fill-rule="evenodd" clip-rule="evenodd" d="M14.6308 7.36459V2.04439C14.6308 0.942518 13.7376 0.0493164 12.6357 0.0493164C11.5338 0.0493164 10.6406 0.942518 10.6406 2.04439V7.36459C10.6406 8.46646 11.5338 9.35966 12.6357 9.35966C13.7376 9.35966 14.6308 8.46646 14.6308 7.36459Z" fill="#2EB67D"/>
<path fill-rule="evenodd" clip-rule="evenodd" d="M12.6357 14.6796H17.9559C19.0578 14.6796 19.951 13.7864 19.951 12.6845C19.951 11.5827 19.0578 10.6895 17.9559 10.6895H12.6357C11.5338 10.6895 10.6406 11.5827 10.6406 12.6845C10.6406 13.7864 11.5338 14.6796 12.6357 14.6796Z" fill="#ECB22E"/>
<path fill-rule="evenodd" clip-rule="evenodd" d="M5.32031 12.6845V18.0047C5.32031 19.1066 6.21351 19.9998 7.31539 19.9998C8.41726 19.9998 9.31046 19.1066 9.31046 18.0047V12.6845C9.31046 11.5826 8.41726 10.6895 7.31539 10.6895C6.21351 10.6895 5.32031 11.5827 5.32031 12.6845Z" fill="#E01E5A"/>
<path fill-rule="evenodd" clip-rule="evenodd" d="M7.31539 0.0493164C6.21351 0.0493164 5.32031 0.942518 5.32031 2.04439C5.32031 3.14626 6.21351 4.03946 7.31539 4.03946H9.31046V2.04439C9.31046 0.942518 8.41726 0.0493164 7.31539 0.0493164Z" fill="#36C5F0"/>
<path fill-rule="evenodd" clip-rule="evenodd" d="M19.9511 7.3647C19.9511 6.26283 19.0579 5.36963 17.956 5.36963C16.8541 5.36963 15.9609 6.26283 15.9609 7.3647V9.35978H17.956C19.0579 9.35978 19.9511 8.46657 19.9511 7.3647Z" fill="#2EB67D"/>
<path fill-rule="evenodd" clip-rule="evenodd" d="M12.6357 19.9999C13.7376 19.9999 14.6308 19.1067 14.6308 18.0048C14.6308 16.903 13.7376 16.0098 12.6357 16.0098H10.6406V18.0048C10.6406 19.1067 11.5338 19.9999 12.6357 19.9999Z" fill="#ECB22E"/>
<path fill-rule="evenodd" clip-rule="evenodd" d="M0 12.6845C0 13.7864 0.893202 14.6796 1.99507 14.6796C3.09695 14.6796 3.99015 13.7864 3.99015 12.6845V10.6895H1.99507C0.893202 10.6895 0 11.5827 0 12.6845Z" fill="#E01E5A"/>
</g>
<defs>
<clipPath id="clip0">
<rect width="20" height="20" fill="white"/>
</clipPath>
</defs>
</svg>
